<svg xmlns="http://www.w3.org/2000/svg" fill="none" viewBox="0 0 3000 3000" id="NavigatingDizzinessinWorkplace"><path fill="#474747" d="M2850.58 2058.52H149.422C146.654 2058.52 144.408 2056.27 144.408 2053.5 144.408 2050.73 146.654 2048.49 149.422 2048.49H2850.58C2853.35 2048.49 2855.59 2050.73 2855.59 2053.5 2855.59 2056.27 2853.35 2058.52 2850.58 2058.52zM2022.56 2108.59C2022.56 2108.59 619.439 2080.62 490.494 2099.27 361.55 2117.92 578.111 2169.94 678.094 2179.32 778.076 2188.69 767.21 2290.36 1133.29 2302.96 1499.37 2315.55 1746.93 2309.91 1884.75 2209.25 1948.82 2156.07 2634.04 2115.34 2022.56 2108.59z" class="color474747 svgShape"></path><path fill="#474747" d="M1373.37 2313.09C1298.11 2313.09 1217.77 2310.88 1133.12 2307.97C887.055 2299.5 811.36 2251.65 756.088 2216.71C730.102 2200.28 709.58 2187.31 677.628 2184.31C623.867 2179.27 446.438 2148.05 445.629 2115.75C445.368 2105.38 458.986 2098.76 489.78 2094.31C617.663 2075.82 1965.18 2102.43 2022.65 2103.58C2278.38 2106.4 2279.01 2114.9 2279.6 2123.12C2280.38 2133.8 2261.18 2138.44 2132.93 2158.5C2034.55 2173.89 1912.11 2193.05 1887.95 2213.1C1778.23 2293.25 1598.79 2313.08 1373.37 2313.09ZM782.772 2097.9C633.976 2097.9 523.034 2099.63 491.215 2104.23C457.033 2109.18 455.649 2115.44 455.652 2115.5C456.044 2131.13 587.289 2165.77 678.561 2174.32C712.906 2177.54 734.326 2191.08 761.444 2208.23C815.746 2242.56 890.117 2289.57 1133.47 2297.94C1469.67 2309.51 1738.27 2310.02 1881.79 2205.2C1907.83 2183.57 2026.6 2164.99 2131.38 2148.59C2185.91 2140.06 2246.83 2130.53 2265.26 2124C2248.27 2119.95 2189.46 2115.44 2022.51 2113.6H2022.46C2011.95 2113.39 1228.15 2097.9 782.773 2097.9L782.772 2097.9Z" class="color474747 svgShape"></path><path fill="#7c7c7c" d="M2298.16 434.211H754.726V1504.44H2298.16V434.211Z" class="color7c7c7c svgShape"></path><path fill="#474747" d="M2298.15 1509.45H754.726C751.958 1509.45 749.712 1507.2 749.712 1504.44V434.211C749.712 431.443 751.958 429.197 754.726 429.197H2298.15C2300.92 429.197 2303.17 431.443 2303.17 434.211V1504.44C2303.17 1507.2 2300.92 1509.45 2298.15 1509.45ZM759.74 1499.42H2293.14V439.225H759.74V1499.42Z" class="color474747 svgShape"></path><path fill="#fcfcfc" d="M2255.91 472.713H796.968V1465.94H2255.91V472.713Z" class="colorfcfcfc svgShape"></path><path fill="#474747" d="M2255.92 1470.95H796.968C794.2 1470.95 791.954 1468.71 791.954 1465.94V472.712C791.954 469.944 794.2 467.698 796.968 467.698H2255.92C2258.68 467.698 2260.93 469.944 2260.93 472.712V1465.94C2260.93 1468.71 2258.68 1470.95 2255.92 1470.95ZM801.981 1460.92H2250.9V477.726H801.981V1460.92Z" class="color474747 svgShape"></path><path fill="#474747" d="M1993.2 1470.98C1991.94 1470.98 1990.67 1470.5 1989.7 1469.55C1944.74 1425.58 1912.04 1378.81 1892.5 1330.53C1885.71 1313.72 1863.42 1297.38 1828.02 1283.28C1638.99 1208 1070.53 1199.82 799.082 1324.06C796.572 1325.2 793.595 1324.1 792.436 1321.58C791.284 1319.07 792.39 1316.09 794.91 1314.94C917.309 1258.92 1115.87 1223.75 1339.68 1218.46C1545.07 1213.64 1733.58 1234.88 1831.73 1273.97C1870.28 1289.32 1893.85 1307.09 1901.79 1326.78C1920.82 1373.76 1952.75 1419.38 1996.71 1462.38C1998.69 1464.32 1998.73 1467.49 1996.79 1469.47C1995.81 1470.48 1994.5 1470.98 1993.2 1470.98L1993.2 1470.98ZM2146.78 1317.04C2039.06 1317.04 1982.2 1276.62 1952.38 1237.5C1896.25 1163.89 1764.29 1102.65 1590.35 1069.51C1431.69 1039.27 1260.89 1036.91 1144.59 1063.34C1014.91 1092.78 882.988 1057.58 795.153 1022.87C792.581 1021.85 791.318 1018.94 792.336 1016.36C793.348 1013.78 796.256 1012.51 798.841 1013.54C885.361 1047.73 1015.2 1082.44 1142.37 1053.56C1372.03 1001.36 1829.85 1060.29 1960.36 1231.43C2027.29 1319.24 2157.49 1314.69 2254.96 1295.39C2257.63 1294.84 2260.31 1296.61 2260.84 1299.34C2261.39 1302.06 2259.62 1304.69 2256.9 1305.23C2215.3 1313.47 2178.78 1317.04 2146.78 1317.04ZM2242.88 1154.79C2176.62 1154.79 2114.63 1123.56 2058.42 1061.82C2041.1 1042.78 2025.36 1024.74 2010.15 1007.29C1881 859.119 1809.86 777.495 1364.36 784.229C1001.2 789.71 889.272 778.105 793.525 686.102C791.527 684.183 791.465 681.007 793.381 679.012C795.307 677.018 798.48 676.959 800.471 678.868C893.613 768.368 1004.28 779.629 1364.21 774.201C1814.34 767.402 1886.58 850.269 2017.71 1000.69C2032.89 1018.11 2048.58 1036.11 2065.84 1055.07C2123.66 1118.59 2187.52 1148.62 2255.62 1144.36C2258.35 1144.15 2260.76 1146.29 2260.93 1149.05C2261.11 1151.82 2259 1154.19 2256.24 1154.37C2251.77 1154.65 2247.31 1154.79 2242.88 1154.79H2242.88ZM2255.94 943.265C2255.81 943.265 2255.69 943.262 2255.57 943.252C2184.01 938.127 2152.05 885.845 2118.21 830.492C2079.59 767.305 2035.81 695.683 1923.94 674.172C1779.62 646.43 1721.93 550.095 1698.95 474.165C1698.15 471.515 1699.65 468.717 1702.3 467.914C1704.93 467.114 1707.74 468.606 1708.55 471.26C1730.73 544.547 1786.43 637.529 1925.83 664.328C2042.06 686.674 2087.06 760.304 2126.77 825.264C2160.63 880.657 2189.87 928.496 2256.29 933.252C2259.05 933.448 2261.13 935.85 2260.93 938.612C2260.74 941.253 2258.54 943.267 2255.94 943.267L2255.94 943.265Z" class="color474747 svgShape"></path><path fill="#fcfcfc" d="M823.322 2365.09L1122.35 2339.07L1060.07 2555.22C1060.07 2555.22 755.158 2564.73 684.953 2565.79L823.321 2365.09H823.322Z" class="colorfcfcfc svgShape"></path><path fill="#474747" d="M684.955 2570.8C683.107 2570.8 681.407 2569.79 680.535 2568.15C679.647 2566.5 679.761 2564.49 680.826 2562.94L819.193 2362.24C820.042 2361.01 821.396 2360.22 822.888 2360.1L1121.92 2334.08C1123.56 2333.94 1125.17 2334.61 1126.22 2335.89C1127.27 2337.16 1127.63 2338.87 1127.17 2340.46L1064.89 2556.6C1064.29 2558.7 1062.4 2560.16 1060.23 2560.23C1057.18 2560.32 754.472 2569.75 685.03 2570.8L684.955 2570.8ZM826.11 2369.88L694.62 2560.61C773.459 2559.07 1023.02 2551.35 1056.27 2550.32L1115.51 2344.7L826.11 2369.88Z" class="color474747 svgShape"></path><path fill="#fcfcfc" d="M736.004 2365.09L547.289 2294.82L237.226 2398.95C237.226 2398.95 420.244 2502.27 481.555 2503.9L736.003 2365.09H736.004Z" class="colorfcfcfc svgShape"></path><path fill="#474747" d="M481.556 2508.92C481.51 2508.92 481.468 2508.92 481.422 2508.92C419.576 2507.27 242.281 2407.56 234.763 2403.32C233.04 2402.34 232.047 2400.44 232.237 2398.47C232.423 2396.5 233.755 2394.83 235.632 2394.2L545.694 2290.07C546.784 2289.72 547.966 2289.73 549.04 2290.13L737.754 2360.39C739.595 2361.08 740.865 2362.77 741.005 2364.73C741.145 2366.69 740.13 2368.55 738.407 2369.49L483.96 2508.3C483.222 2508.71 482.396 2508.92 481.558 2508.92H481.556ZM249.606 2400.08C288.11 2421.24 427.995 2496.24 480.368 2498.84L723.952 2365.95L547.205 2300.14L249.606 2400.08Z" class="color474747 svgShape"></path><path fill="#fcfcfc" d="M984.282 2305.94L720.055 2281.56L432.998 2440.02C432.998 2440.02 678.09 2507.52 730.465 2503.75C730.465 2503.75 908.799 2397.52 984.282 2305.94Z" class="colorfcfcfc svgShape"></path><path fill="#474747" d="M725.917 2508.91C664.975 2508.91 441.424 2447.54 431.667 2444.85C429.702 2444.31 428.259 2442.63 428.021 2440.61C427.779 2438.58 428.791 2436.61 430.577 2435.63L717.633 2277.17C718.511 2276.69 719.536 2276.49 720.515 2276.57L984.741 2300.94C986.592 2301.11 988.194 2302.29 988.909 2304.01C989.624 2305.72 989.33 2307.69 988.148 2309.12C912.981 2400.32 734.824 2506.99 733.032 2508.06C732.36 2508.46 731.606 2508.7 730.825 2508.75C729.337 2508.86 727.692 2508.91 725.917 2508.91ZM446.261 2438.42C495.53 2451.7 682.458 2501.04 728.94 2498.82C743.247 2490.19 900.141 2394.59 974.208 2310.04L721.129 2286.7L446.262 2438.42H446.261Z" class="color474747 svgShape"></path><path fill="#48cc91" d="M1955.7 2039.07C1943.34 2125.04 1748.8 2196.43 1748.8 2196.43C1748.8 2196.43 1755.15 2218.89 1724.6 2240.28C1752.48 2267.22 1706.29 2291.89 1633.42 2318.3C1560.49 2344.71 1393.1 2261.41 1337.61 2259.4C1298.84 2309.14 1262.74 2305.86 1239.68 2288.55C1216.61 2271.3 1178.51 2280.53 1178.51 2280.53C1178.51 2280.53 826.945 2137.27 768.384 2130.12C709.824 2122.96 658.35 2028.17 641.436 1991C624.59 1953.77 651.931 1909.24 686.76 1845.4C721.588 1781.56 840.247 1830.03 901.281 1845.4C887.109 1793.73 931.631 1773.87 931.631 1773.87C931.631 1773.87 943.597 1753.28 936.11 1730.82C928.623 1708.36 954.828 1683.23 954.828 1683.23C936.11 1650.67 974.482 1635.56 974.482 1635.56C974.482 1635.56 1061.79 1346.3 1093.01 1279.99C1124.29 1213.74 1379.39 1116.07 1379.39 1116.07C1630.88 1119.21 1743.66 1286.47 1772.67 1326.85C1801.68 1367.29 1751.14 1456.27 1768.59 1466.7C1784.3 1488.29 1777.22 1538.3 1777.22 1538.3C1777.22 1538.3 1790.92 1703.68 1779.62 1743.06C1629.94 1799.68 1635.63 1916.27 1635.63 1916.27C1635.63 1916.27 1853.69 1923.95 1895.34 1922.75C1936.92 1921.48 1960.72 2001.9 1955.7 2039.07Z" class="color48a0cc svgShape"></path><path fill="#474747" d="M1598.98 2328.41C1550.18 2328.42 1485.08 2307.1 1430.44 2289.22C1392.57 2276.83 1359.65 2266.05 1339.93 2264.56C1322.74 2285.9 1281.55 2326.26 1236.67 2292.56C1215.8 2276.96 1180.04 2285.32 1179.68 2285.4C1178.67 2285.65 1177.59 2285.57 1176.62 2285.17C1173.11 2283.74 825.011 2142.08 767.777 2135.09C700.973 2126.93 647.013 2015.36 636.875 1993.08C620.205 1956.23 643.178 1914.39 674.971 1856.49L682.361 1843C713.687 1785.56 804.319 1812.13 870.507 1831.54C879 1834.03 887.148 1836.43 894.596 1838.46C887.079 1794.9 920.034 1774.38 927.926 1770.14C930.136 1765.63 937.026 1749.43 931.357 1732.41C924.424 1711.61 941.786 1689.92 948.703 1682.36C944.257 1673.17 943.471 1664.34 946.369 1656.06C951.184 1642.32 964.854 1634.56 970.344 1631.92C979.066 1603.1 1058.54 1341.44 1088.47 1277.85C1120.26 1210.55 1367.11 1115.41 1377.6 1111.39C1378.19 1111.16 1378.84 1111.1 1379.46 1111.06C1543.67 1113.11 1676.51 1183.58 1774.31 1320.52L1776.74 1323.93C1795.02 1349.4 1784.69 1390.27 1776.4 1423.11C1772.69 1437.78 1767.09 1459.96 1771.16 1462.4C1771.75 1462.74 1772.25 1463.2 1772.65 1463.75C1788.61 1485.69 1783.05 1532.43 1782.26 1538.43C1783.26 1550.68 1795.65 1705.39 1784.44 1744.44C1784.01 1745.96 1782.88 1747.18 1781.39 1747.74C1705.92 1776.3 1671.69 1820.5 1656.26 1852.55C1643.48 1879.11 1641.1 1901.99 1640.7 1911.42C1673.24 1912.55 1857.68 1918.83 1895.2 1917.73C1907.64 1917.3 1918.91 1922.96 1929.19 1934.38C1951.95 1959.61 1964.58 2010.81 1960.67 2039.73C1960.67 2039.75 1960.67 2039.76 1960.67 2039.78C1948.84 2121.98 1782.49 2188.93 1754.31 2199.72C1754.78 2207.65 1752.81 2224.5 1732.02 2241.01C1737.01 2247.37 1738.8 2254 1737.36 2260.78C1733.21 2280.17 1703.6 2298.2 1635.13 2323.01C1624.7 2326.79 1612.46 2328.41 1598.97 2328.41L1598.98 2328.41ZM1337.61 2254.39C1337.67 2254.39 1337.73 2254.39 1337.79 2254.4C1358.58 2255.15 1393.33 2266.52 1433.56 2279.69C1501.83 2302.03 1586.78 2329.85 1631.72 2313.58C1670.85 2299.4 1723.37 2278.28 1727.55 2258.68C1728.57 2253.9 1726.47 2249.06 1721.12 2243.89C1720.04 2242.85 1719.49 2241.38 1719.61 2239.89C1719.72 2238.4 1720.5 2237.04 1721.73 2236.18C1748.67 2217.32 1744.17 2198.53 1743.97 2197.74C1743.32 2195.25 1744.66 2192.61 1747.08 2191.72C1748.99 2191.02 1938.9 2120.39 1950.74 2038.38C1954.34 2011.63 1942.71 1964.35 1921.75 1941.1C1913.51 1931.96 1904.67 1927.49 1895.49 1927.76C1854.25 1929 1644.36 1921.59 1635.45 1921.28C1632.85 1921.19 1630.75 1919.11 1630.62 1916.51C1630.56 1915.27 1629.34 1885.67 1646.97 1848.73C1662.98 1815.21 1698.23 1769.17 1775.42 1739.3C1785.2 1697.29 1772.35 1540.32 1772.22 1538.71C1772.19 1538.34 1772.2 1537.96 1772.25 1537.6C1772.32 1537.12 1778.72 1490.43 1765.02 1470.34C1755.85 1463.5 1760.43 1445.39 1766.68 1420.65C1774.46 1389.82 1784.15 1351.46 1768.6 1329.77L1766.15 1326.35C1670.5 1192.43 1540.69 1123.37 1380.3 1121.1C1363.75 1127.52 1126.71 1220.36 1097.54 1282.13C1066.84 1347.35 980.156 1634.12 979.281 1637.01C978.84 1638.47 977.747 1639.66 976.33 1640.22C976.17 1640.29 960.218 1646.77 955.818 1659.42C953.595 1665.82 954.725 1672.98 959.177 1680.73C960.323 1682.72 959.96 1685.24 958.302 1686.84C958.064 1687.07 934.48 1710.08 940.868 1729.24C948.976 1753.57 936.501 1775.48 935.965 1776.4C935.439 1777.3 934.636 1778.02 933.683 1778.45C932.028 1779.2 893.292 1797.32 906.117 1844.08C906.59 1845.8 906.114 1847.64 904.864 1848.91C903.617 1850.18 901.792 1850.71 900.059 1850.27C890.456 1847.85 879.394 1844.6 867.682 1841.17C804.775 1822.72 718.621 1797.46 691.16 1847.81L683.76 1861.31C653.364 1916.67 631.406 1956.67 646.004 1988.94C651.977 2002.06 706.201 2117.47 768.991 2125.14C826.234 2132.13 1151 2263.92 1178.96 2275.3C1186.81 2273.66 1220.53 2267.98 1242.68 2284.54C1270.34 2305.31 1303.5 2295.01 1333.66 2256.32C1334.61 2255.1 1336.07 2254.39 1337.61 2254.39L1337.61 2254.39Z" class="color474747 svgShape"></path><path fill="#00e77f" d="M1955.7 2039.07C1943.34 2125.04 1748.8 2196.43 1748.8 2196.43C1748.8 2196.43 1755.15 2218.89 1724.6 2240.28C1752.48 2267.22 1706.29 2291.89 1633.42 2318.3C1560.49 2344.71 1393.1 2261.41 1337.61 2259.4C1298.84 2309.14 1262.74 2305.87 1239.68 2288.55C1216.61 2271.3 1178.51 2280.53 1178.51 2280.53C1178.51 2280.53 826.945 2137.27 768.384 2130.12C709.824 2122.96 658.35 2028.17 641.436 1991C624.59 1953.77 651.931 1909.24 686.76 1845.4C721.588 1781.56 840.247 1830.03 901.281 1845.4C901.281 1845.4 1001.96 1921.81 1035.18 1942.4C1056.91 1955.77 1079.5 1948.15 1092.67 1941.13C1099.69 1937.45 1103.97 1933.98 1103.97 1933.98C1103.97 1933.98 1208.72 1982.31 1306.86 2059.52C1385.14 2056.05 1635.63 1916.26 1635.63 1916.26C1635.63 1916.26 1853.69 1923.95 1895.34 1922.75C1936.92 1921.48 1960.72 2001.9 1955.7 2039.07Z" class="color317c99 svgShape"></path><path fill="#474747" d="M1598.98 2328.41C1550.18 2328.42 1485.08 2307.11 1430.44 2289.22C1392.57 2276.83 1359.65 2266.05 1339.93 2264.56C1322.74 2285.9 1281.55 2326.26 1236.67 2292.56C1215.8 2276.96 1180.04 2285.31 1179.68 2285.4C1178.67 2285.65 1177.59 2285.57 1176.62 2285.17C1173.11 2283.74 825.011 2142.08 767.777 2135.09C700.973 2126.93 647.013 2015.36 636.875 1993.08C620.205 1956.23 643.178 1914.39 674.971 1856.49L682.361 1843C713.687 1785.56 804.319 1812.13 870.507 1831.54C882.121 1834.95 893.095 1838.17 902.509 1840.54C903.165 1840.71 903.779 1841 904.317 1841.41C905.319 1842.17 1005.18 1917.91 1037.82 1938.14C1056.93 1949.9 1076.91 1943.84 1090.32 1936.71C1096.78 1933.32 1100.78 1930.11 1100.82 1930.08C1102.3 1928.88 1104.35 1928.63 1106.07 1929.43C1107.12 1929.91 1211.42 1978.4 1308.47 2054.41C1386.73 2048.97 1630.71 1913.27 1633.19 1911.89C1633.99 1911.44 1634.88 1911.18 1635.81 1911.26C1637.98 1911.33 1854.21 1918.93 1895.2 1917.74C1907.64 1917.3 1918.91 1922.97 1929.2 1934.38C1951.95 1959.61 1964.58 2010.81 1960.67 2039.74C1960.67 2039.75 1960.67 2039.77 1960.67 2039.78C1948.84 2121.98 1782.49 2188.94 1754.31 2199.72C1754.78 2207.66 1752.82 2224.5 1732.02 2241.01C1737.01 2247.38 1738.8 2254.01 1737.36 2260.78C1733.21 2280.17 1703.6 2298.2 1635.13 2323.01C1624.7 2326.79 1612.46 2328.41 1598.98 2328.41L1598.98 2328.41ZM1337.61 2254.39C1337.67 2254.39 1337.73 2254.39 1337.79 2254.4C1358.58 2255.15 1393.33 2266.52 1433.56 2279.69C1501.83 2302.03 1586.78 2329.85 1631.72 2313.58C1670.85 2299.4 1723.37 2278.28 1727.55 2258.68C1728.57 2253.9 1726.47 2249.06 1721.12 2243.89C1720.04 2242.85 1719.49 2241.38 1719.61 2239.89C1719.72 2238.4 1720.5 2237.04 1721.73 2236.18C1748.67 2217.32 1744.17 2198.53 1743.97 2197.74C1743.32 2195.25 1744.66 2192.61 1747.08 2191.72C1748.99 2191.02 1938.9 2120.4 1950.74 2038.38C1954.34 2011.63 1942.71 1964.35 1921.75 1941.1C1913.51 1931.96 1904.67 1927.49 1895.49 1927.76C1855.5 1928.96 1657.21 1922.04 1636.85 1921.32C1615.61 1933.13 1383.65 2061.13 1307.08 2064.53C1305.87 2064.6 1304.71 2064.21 1303.76 2063.46C1215.86 1994.31 1121.47 1947.89 1104.54 1939.79C1102.45 1941.26 1099.18 1943.39 1095 1945.57C1082.17 1952.41 1056.95 1961.68 1032.56 1946.67C1000.7 1926.93 909.363 1857.82 899.064 1850.01C889.696 1847.63 878.993 1844.49 867.682 1841.17C804.775 1822.72 718.621 1797.46 691.16 1847.81L683.76 1861.31C653.364 1916.67 631.406 1956.67 646.004 1988.94C651.977 2002.06 706.201 2117.47 768.991 2125.14C826.234 2132.13 1151 2263.92 1178.96 2275.3C1186.82 2273.67 1220.54 2267.98 1242.68 2284.54C1270.34 2305.31 1303.5 2295.01 1333.66 2256.32C1334.61 2255.1 1336.07 2254.39 1337.61 2254.39L1337.61 2254.39Z" class="color474747 svgShape"></path><path fill="#474747" d="M1635.63 1916.26C1635.63 1916.26 1500.55 2093.74 1453.46 2092.01C1432.26 2091.23 1429.66 2077.26 1411.08 2101.84C1403.19 2112.27 1371.5 2098.1 1364.28 2113.2C1364.28 2113.2 1341.75 2091.88 1325.24 2105.78C1308.73 2112.27 1306.12 2086.26 1283.13 2087.13C1249.57 2067.48 1056.31 1979.64 1044.27 1974.16C1051.43 1976.7 1121.95 2001.83 1112.13 1981.04C1106.98 1970.21 1099.16 1954.37 1092.67 1941.13C1099.69 1937.46 1103.97 1933.98 1103.97 1933.98C1103.97 1933.98 1208.72 1982.31 1306.86 2059.52C1385.14 2056.05 1635.63 1916.27 1635.63 1916.27L1635.63 1916.26Z" class="color474747 svgShape"></path><path fill="#474747" d="M1364.28 2118.22C1363.02 2118.22 1361.78 2117.74 1360.84 2116.85C1360.65 2116.67 1341.34 2098.78 1328.47 2109.62C1328.06 2109.97 1327.58 2110.25 1327.08 2110.45C1315.83 2114.86 1308.85 2107.87 1303.23 2102.26C1297.83 2096.87 1292.71 2091.68 1283.32 2092.14C1282.38 2092.18 1281.42 2091.94 1280.59 2091.46C1250.66 2073.93 1091.87 2001.33 1043.91 1979.5L1042.19 1978.72C1039.75 1977.61 1038.62 1974.76 1039.62 1972.28C1040.63 1969.79 1043.44 1968.53 1045.95 1969.43C1083.93 1982.93 1103.21 1985.44 1107.88 1983.88C1107.81 1983.69 1107.72 1983.46 1107.59 1983.19C1103.5 1974.58 1097.71 1962.78 1092.25 1951.66L1088.17 1943.34C1086.97 1940.9 1087.94 1937.95 1090.35 1936.69C1096.77 1933.33 1100.78 1930.12 1100.81 1930.08C1102.3 1928.88 1104.34 1928.63 1106.07 1929.43C1107.12 1929.91 1211.42 1978.4 1308.47 2054.41C1386.74 2048.97 1630.71 1913.27 1633.19 1911.89C1635.27 1910.73 1637.86 1911.19 1639.42 1912.98C1640.97 1914.78 1641.06 1917.41 1639.62 1919.3C1625.63 1937.68 1501.87 2098.75 1453.28 2097.03C1446.2 2096.77 1441.03 2095.18 1436.88 2093.9C1428.68 2091.38 1425.91 2090.53 1415.08 2104.86C1409.9 2111.71 1399.71 2111.29 1389.87 2110.88C1379.01 2110.45 1371.14 2110.49 1368.81 2115.37C1368.12 2116.81 1366.78 2117.84 1365.2 2118.13C1364.9 2118.19 1364.59 2118.22 1364.28 2118.22L1364.28 2118.22ZM1338.05 2095.99C1348.38 2095.99 1358.1 2101.99 1363.46 2106.03C1370.1 2100.03 1381.13 2100.49 1390.27 2100.86C1396.87 2101.12 1405.07 2101.46 1407.08 2098.82C1420.65 2080.85 1427.81 2080.62 1439.82 2084.31C1443.59 2085.48 1447.88 2086.79 1453.64 2087C1485.96 2087.96 1571.89 1988.82 1616.75 1932.34C1554.11 1966.32 1373 2061.61 1307.08 2064.53C1305.87 2064.65 1304.71 2064.21 1303.76 2063.46C1215.86 1994.31 1121.47 1947.89 1104.54 1939.79C1103.22 1940.71 1101.44 1941.9 1099.26 1943.19L1101.25 1947.24C1106.73 1958.4 1112.54 1970.24 1116.65 1978.89C1119.53 1984.97 1117.39 1988.71 1115.86 1990.4C1114.53 1991.86 1111.78 1994.93 1099.64 1993.96C1165.05 2024 1259.47 2067.86 1284.43 2082.1C1297.3 2082.17 1304.79 2089.65 1310.31 2095.17C1316.04 2100.89 1318.46 2102.8 1322.73 2101.36C1327.68 2097.46 1332.94 2095.99 1338.05 2095.99L1338.05 2095.99Z" class="color474747 svgShape"></path><path fill="#bae5d2" d="M1402.25 1391.03C1402.25 1391.03 1411.61 1509.65 1434.34 1533.52L1509.55 1397.18C1509.55 1397.18 1442.48 1423.67 1402.25 1391.03Z" class="colorbad8e5 svgShape"></path><path fill="#474747" d="M1434.35 1538.53C1432.98 1538.53 1431.67 1537.98 1430.72 1536.97C1407.03 1512.1 1397.65 1396.34 1397.26 1391.42C1397.1 1389.42 1398.15 1387.52 1399.92 1386.59C1401.69 1385.66 1403.85 1385.87 1405.42 1387.13C1442.86 1417.53 1507.06 1392.76 1507.71 1392.51C1509.67 1391.74 1511.92 1392.28 1513.31 1393.86C1514.71 1395.45 1514.96 1397.75 1513.94 1399.6L1438.74 1535.94C1437.97 1537.34 1436.57 1538.29 1434.99 1538.49C1434.77 1538.52 1434.56 1538.53 1434.35 1538.53ZM1408.19 1401.18C1411.53 1435.71 1420.22 1500.15 1433.78 1524.16L1499.01 1405.9C1479.07 1411.54 1439.12 1419.12 1408.19 1401.18Z" class="color474747 svgShape"></path><path fill="#40ffa9" d="M1699.8 1012.19C1716.18 1076.43 1723.33 1154.58 1631.01 1173.63C1629.08 1169.55 1619.32 1163.34 1604.54 1155.98L1617.78 1142.21C1617.78 1142.21 1670.25 1134.19 1681.62 1109.86C1692.92 1085.59 1695.52 1002.5 1661.83 1030.57L1628.14 1058.65L1625.93 1007.11C1625.93 1007.11 1589.17 982.307 1598.32 931.501C1598.32 931.501 1552.33 977.026 1490.16 967.132L1506.2 951.489C1506.2 951.489 1414.02 977.427 1351.45 939.924C1351.45 939.924 1350.78 1004.57 1352.25 1058.45C1334.94 1055.11 1264.81 1036.46 1296.1 958.107C1272.97 936.448 1294.63 877.286 1321.1 871.403C1310.47 848.808 1340.62 836.641 1340.62 836.641C1340.62 836.641 1383 643.044 1586.36 699.867C1678.81 733.292 1706.29 805.623 1706.29 805.623C1706.29 805.623 1757.43 898.745 1699.8 1012.19L1699.8 1012.19Z" class="colorffb140 svgShape"></path><path fill="#474747" d="M1631.01 1178.64C1629.11 1178.64 1627.33 1177.56 1626.49 1175.78C1626.27 1175.34 1623.8 1171.17 1602.31 1160.47C1600.88 1159.76 1599.87 1158.41 1599.6 1156.84C1599.33 1155.27 1599.82 1153.66 1600.93 1152.51L1614.16 1138.74C1614.92 1137.94 1615.93 1137.42 1617.02 1137.26C1630.88 1135.13 1668.7 1125.67 1677.08 1107.73C1686.12 1088.31 1687.38 1039.04 1676.63 1030.77C1674.14 1028.86 1670.25 1030.09 1665.04 1034.42L1631.35 1062.5C1629.89 1063.73 1627.86 1064.01 1626.11 1063.24C1624.37 1062.46 1623.21 1060.77 1623.13 1058.86L1621.03 1009.7C1613.67 1003.9 1590.13 982.189 1591.92 943.5C1574.74 956.641 1536.82 979.621 1489.37 972.084C1487.5 971.787 1485.96 970.458 1485.38 968.65C1484.81 966.842 1485.3 964.867 1486.66 963.542L1490.02 960.265C1461.31 965.661 1403.05 972.117 1356.4 948.383C1356.27 967.641 1356.12 1016.49 1357.26 1058.31C1357.3 1059.83 1356.65 1061.29 1355.49 1062.27C1354.34 1063.26 1352.8 1063.66 1351.3 1063.37C1337.97 1060.8 1305.37 1051.87 1290.49 1024.63C1280.76 1006.83 1280.69 984.853 1290.28 959.256C1281.06 948.419 1278.75 930.685 1284.14 910.94C1288.87 893.656 1299.88 874.842 1314.64 868.291C1313.29 863.143 1313.57 858.091 1315.49 853.207C1319.77 842.282 1331.25 835.6 1336.31 833.103C1339.97 818.649 1360.94 747.011 1425.1 708.432C1469.41 681.777 1524.13 677.263 1587.71 695.039C1679.54 728.226 1708.55 797.661 1710.86 803.543C1714.13 809.833 1760.22 902.434 1705.12 1012.77C1714.19 1048.84 1723.08 1100.04 1700.39 1136.33C1687 1157.74 1664 1171.94 1632.03 1178.54C1631.69 1178.61 1631.35 1178.64 1631.01 1178.64ZM1612.83 1154.59C1624.71 1160.85 1630.31 1165.03 1633.12 1168.05C1660.67 1161.78 1680.44 1149.33 1691.89 1131.01C1712.92 1097.37 1703.71 1047.79 1694.94 1013.43C1694.64 1012.25 1694.78 1011 1695.33 1009.92C1751.11 900.108 1702.39 808.947 1701.89 808.036C1701.78 807.837 1701.68 807.625 1701.6 807.409C1701.33 806.707 1673.67 736.766 1584.65 704.585C1524.23 687.709 1472.19 691.845 1430.34 716.979C1363.99 756.821 1345.69 836.914 1345.51 837.717C1345.16 839.326 1344.03 840.668 1342.5 841.288C1342.36 841.347 1328.66 847.036 1324.81 856.9C1323.29 860.804 1323.55 864.851 1325.63 869.268C1326.28 870.645 1326.27 872.245 1325.6 873.613C1324.93 874.977 1323.67 875.966 1322.18 876.296C1310.97 878.79 1299.04 894.471 1293.81 913.586C1288.97 931.294 1291.11 946.567 1299.52 954.45C1301.03 955.86 1301.52 958.05 1300.75 959.97C1291.18 983.945 1290.68 1004.08 1299.28 1019.82C1310.34 1040.06 1334.15 1048.77 1347.07 1052.13C1345.83 1000.15 1346.43 940.493 1346.43 939.873C1346.45 938.078 1347.43 936.426 1349 935.551C1350.57 934.67 1352.49 934.702 1354.02 935.626C1413.97 971.554 1503.94 946.917 1504.84 946.662C1507.05 946.061 1509.4 946.998 1510.54 948.986C1511.69 950.971 1511.34 953.477 1509.7 955.08L1501.26 963.315C1555.01 966.69 1594.38 928.353 1594.79 927.938C1596.35 926.401 1598.73 926.055 1600.66 927.066C1602.59 928.084 1603.65 930.239 1603.26 932.393C1594.82 979.198 1627.36 1002.01 1628.74 1002.96C1630.05 1003.85 1630.87 1005.31 1630.94 1006.89L1632.71 1048.31L1658.62 1026.72C1670.2 1017.07 1678.13 1019.28 1682.75 1022.83C1699.83 1035.98 1695.43 1092.07 1686.16 1111.97C1674.89 1136.11 1629.78 1145.21 1620.24 1146.89L1612.83 1154.6L1612.83 1154.59Z" class="color474747 svgShape"></path><path fill="#e3fff2" d="M1681.62 1109.85C1670.25 1134.19 1617.78 1142.21 1617.78 1142.21L1604.54 1155.98L1590.64 1170.42C1591.91 1241.55 1509.55 1397.18 1509.55 1397.18C1509.55 1397.18 1425.45 1422.71 1402.25 1391.03C1378.99 1359.41 1417.7 1209.66 1417.7 1209.66C1417.7 1209.66 1366.15 1148.5 1357.93 1127.91C1354.79 1120.08 1353.12 1091.27 1352.25 1058.45C1350.78 1004.57 1351.45 939.923 1351.45 939.923C1414.02 977.426 1506.2 951.488 1506.2 951.488L1490.16 967.131C1552.33 977.025 1598.32 931.5 1598.32 931.5C1589.17 982.306 1625.93 1007.11 1625.93 1007.11L1628.14 1058.65L1661.83 1030.57C1695.52 1002.49 1692.92 1085.59 1681.62 1109.85Z" class="colorfff6e3 svgShape"></path><path fill="#474747" d="M1447.92 1411.87C1427.84 1411.87 1408.25 1407.71 1398.21 1393.99C1375.21 1362.73 1406.09 1235.04 1412.2 1210.91C1403.11 1200.02 1360.95 1148.97 1353.27 1129.76C1352.18 1127.03 1348.83 1118.7 1347.24 1058.58C1345.78 1005.23 1346.43 940.518 1346.43 939.871C1346.45 938.076 1347.43 936.424 1349 935.549C1350.57 934.668 1352.49 934.7 1354.03 935.624C1413.97 971.556 1503.94 946.911 1504.85 946.66C1507.06 946.059 1509.4 946.996 1510.55 948.984C1511.69 950.969 1511.35 953.475 1509.7 955.078L1501.26 963.313C1554.87 966.518 1594.39 928.344 1594.8 927.933C1596.36 926.405 1598.73 926.053 1600.66 927.068C1602.59 928.086 1603.65 930.241 1603.26 932.392C1594.78 979.435 1628.4 1002.72 1628.74 1002.95C1630.06 1003.84 1630.88 1005.3 1630.94 1006.89L1632.72 1048.31L1658.62 1026.72C1670.2 1017.07 1678.14 1019.27 1682.75 1022.83C1699.83 1035.97 1695.43 1092.07 1686.16 1111.97V1111.98C1674.89 1136.11 1629.79 1145.21 1620.24 1146.88L1595.66 1172.43C1595.4 1244.84 1517.33 1393.18 1513.98 1399.52C1513.35 1400.7 1512.28 1401.59 1511 1401.97C1508.87 1402.62 1477.85 1411.87 1447.92 1411.87L1447.92 1411.87ZM1356.4 948.384C1356.28 967.642 1356.12 1016.49 1357.26 1058.31C1358.61 1109.06 1361.18 1122.52 1362.59 1126.04C1370.42 1145.65 1421.02 1205.83 1421.53 1206.43C1422.58 1207.68 1422.96 1209.35 1422.55 1210.92C1411.95 1251.93 1388.37 1363.7 1406.29 1388.06C1423.12 1411.04 1482.16 1399.87 1506.09 1392.97C1515.32 1375.2 1586.78 1235.41 1585.62 1170.51C1585.6 1169.19 1586.1 1167.9 1587.02 1166.94L1614.16 1138.74C1614.92 1137.94 1615.93 1137.43 1617.02 1137.26C1630.88 1135.13 1668.69 1125.67 1677.08 1107.74C1686.12 1088.31 1687.37 1039.04 1676.63 1030.78C1674.14 1028.86 1670.25 1030.09 1665.04 1034.42L1631.35 1062.5C1629.89 1063.73 1627.86 1064.01 1626.11 1063.24C1624.37 1062.46 1623.21 1060.77 1623.13 1058.87L1621.03 1009.7C1613.67 1003.9 1590.13 982.19 1591.92 943.501C1574.74 956.642 1536.82 979.622 1489.37 972.085C1487.5 971.788 1485.96 970.459 1485.38 968.651C1484.81 966.843 1485.3 964.868 1486.66 963.543L1490.02 960.266C1461.31 965.662 1403.05 972.118 1356.4 948.384Z" class="color474747 svgShape"></path><path fill="#474747" d="M1617.78 1142.21C1617.78 1142.21 1502.29 1225.52 1476.32 1229.33C1450.34 1233.14 1417.7 1209.66 1417.7 1209.66C1417.7 1209.66 1463.59 1270.15 1491.16 1262.19C1518.73 1254.23 1617.78 1142.21 1617.78 1142.21Z" class="color474747 svgShape"></path><path fill="#474747" d="M1485.98 1267.91C1456.5 1267.91 1418.26 1218.7 1413.7 1212.69C1412.2 1210.72 1412.38 1207.94 1414.11 1206.17C1415.83 1204.39 1418.61 1204.14 1420.62 1205.59C1420.93 1205.82 1451.98 1227.88 1475.59 1224.37C1495.9 1221.39 1583 1161.12 1614.84 1138.15C1616.92 1136.65 1619.78 1136.95 1621.49 1138.85C1623.21 1140.74 1623.22 1143.62 1621.53 1145.53C1611.3 1157.11 1520.71 1258.88 1492.55 1267.01C1490.42 1267.62 1488.22 1267.91 1485.98 1267.91H1485.98ZM1439.68 1227.52C1456.61 1245.06 1477.18 1261.01 1489.77 1257.37C1505.43 1252.85 1549.83 1208.31 1583.3 1172.56C1546.64 1197.73 1494.54 1231.72 1477.05 1234.29C1464.58 1236.12 1450.98 1232.33 1439.68 1227.52Z" class="color474747 svgShape"></path><path fill="#474747" d="M1457.94 1319.92C1455.71 1319.92 1453.67 1318.42 1453.09 1316.16L1429.02 1222.69C1428.33 1220.01 1429.94 1217.27 1432.62 1216.58 1435.3 1215.86 1438.04 1217.51 1438.73 1220.19L1462.8 1313.66C1463.49 1316.34 1461.88 1319.07 1459.2 1319.76 1458.78 1319.87 1458.36 1319.92 1457.94 1319.92zM1541.84 1260.83C1541.2 1260.83 1540.55 1260.71 1539.92 1260.45 1537.36 1259.39 1536.15 1256.45 1537.21 1253.9L1561.13 1196.3C1562.2 1193.74 1565.12 1192.53 1567.69 1193.59 1570.25 1194.66 1571.46 1197.59 1570.4 1200.15L1546.48 1257.74C1545.67 1259.67 1543.81 1260.83 1541.84 1260.83zM1647.19 1121.09C1642.35 1121.09 1637.68 1118.17 1634.12 1112.84 1629.64 1106.13 1627.11 1095.52 1631.23 1089.11 1633.6 1085.43 1637.75 1083.75 1642.57 1084.55 1644.4 1084.84 1645.8 1084.51 1647.13 1083.48 1651.58 1080.04 1653.44 1070.34 1653.74 1067.22 1653.8 1066.63 1653.96 1066.05 1654.21 1065.51 1660.06 1053.39 1665.86 1047.9 1671.35 1049.13 1677.82 1050.59 1678.73 1059.32 1678.77 1067.67 1678.78 1070.44 1676.55 1072.69 1673.78 1072.7H1673.76C1671 1072.7 1668.76 1070.48 1668.74 1067.71 1668.73 1064.81 1668.58 1062.73 1668.39 1061.26 1666.88 1063.27 1665.08 1066.2 1663.62 1069.12 1663.14 1072.91 1661.03 1085.39 1653.29 1091.4 1649.77 1094.12 1645.53 1095.18 1640.98 1094.45 1640.2 1094.33 1639.79 1094.41 1639.72 1094.45 1638.99 1095.1 1638.57 1099.6 1641.16 1104.98 1643 1108.81 1645.7 1111.39 1647.58 1111.02 1650.29 1110.56 1652.91 1112.35 1653.4 1115.08 1653.89 1117.8 1652.07 1120.41 1649.35 1120.89 1648.63 1121.02 1647.91 1121.09 1647.19 1121.09L1647.19 1121.09zM1568.91 1031.75C1567.21 1031.75 1565.57 1030.9 1564.62 1029.34 1556.68 1016.32 1544.31 1019.2 1526.34 1025.09 1523.72 1025.95 1521.17 1026.78 1518.73 1027.49 1501.96 1032.32 1490.33 1016.02 1486.52 1006.72 1485.47 1004.17 1486.7 1001.25 1489.25 1000.19 1491.8 999.144 1494.74 1000.36 1495.8 1002.91 1495.87 1003.09 1503.67 1021.39 1515.95 1017.85 1518.28 1017.18 1520.72 1016.38 1523.22 1015.56 1538.97 1010.41 1560.53 1003.34 1573.19 1024.13 1574.63 1026.49 1573.88 1029.58 1571.51 1031.02 1570.7 1031.52 1569.8 1031.75 1568.91 1031.75zM1379.42 1009.83C1378.35 1009.83 1377.28 1009.5 1376.37 1008.8 1374.17 1007.11 1373.76 1003.96 1375.45 1001.77 1383.76 990.944 1392.93 985.457 1402.71 985.457H1402.85C1417.88 985.532 1428.07 998.84 1428.49 999.405 1430.16 1001.62 1429.71 1004.76 1427.5 1006.43 1425.31 1008.09 1422.17 1007.66 1420.49 1005.45 1420.41 1005.35 1412.78 995.498 1402.74 995.485H1402.72C1396.21 995.485 1389.71 999.653 1383.4 1007.88 1382.41 1009.16 1380.92 1009.83 1379.42 1009.83H1379.42zM1423 1141.52C1421.24 1141.52 1419.53 1140.59 1418.61 1138.94L1407.25 1118.5C1406.3 1116.79 1406.43 1114.69 1407.59 1113.11L1430.3 1082.06C1431.93 1079.82 1435.07 1079.33 1437.31 1080.97 1439.54 1082.61 1440.03 1085.74 1438.39 1087.98L1417.58 1116.44 1427.38 1134.07C1428.72 1136.49 1427.85 1139.54 1425.43 1140.89 1424.66 1141.32 1423.82 1141.52 1423 1141.52zM1453.27 1141.25H1440.92C1438.15 1141.25 1435.9 1139 1435.9 1136.23 1435.9 1133.46 1438.15 1131.22 1440.92 1131.22H1453.27C1456.03 1131.22 1458.28 1133.46 1458.28 1136.23 1458.28 1139 1456.03 1141.25 1453.27 1141.25z" class="color474747 svgShape"></path><path fill="#77f7bd" d="M1496.11 1179.85C1496.11 1179.85 1448.05 1188.54 1433.87 1185.8C1431.73 1185.4 1430 1184.53 1428.59 1183.32C1420.64 1176.91 1422.98 1160.93 1422.98 1160.93L1444.9 1166.61L1454.26 1169.02L1496.11 1179.85Z" class="colorf77777 svgShape"></path><path fill="#474747" d="M1441.39 1191.33C1438.04 1191.33 1435.14 1191.15 1432.92 1190.72C1430.04 1190.18 1427.47 1188.97 1425.33 1187.13C1415.55 1179.24 1417.73 1162.13 1418.01 1160.2C1418.22 1158.79 1419.02 1157.54 1420.2 1156.75C1421.39 1155.96 1422.85 1155.71 1424.23 1156.07L1497.37 1174.99C1499.65 1175.58 1501.21 1177.68 1501.12 1180.03C1501.03 1182.39 1499.32 1184.36 1497 1184.78C1492.75 1185.55 1460.13 1191.33 1441.39 1191.33ZM1427.69 1167.33C1427.83 1171.7 1428.74 1177 1431.74 1179.42C1432.66 1180.21 1433.62 1180.65 1434.8 1180.87C1441.34 1182.15 1457.07 1180.6 1471.43 1178.64L1427.69 1167.33L1427.69 1167.33Z" class="color474747 svgShape"></path><path fill="#474747" d="M1444.9 1166.61C1437.55 1170.96 1431.8 1178.38 1428.59 1183.32C1420.64 1176.91 1422.98 1160.93 1422.98 1160.93L1444.9 1166.61Z" class="color474747 svgShape"></path><path fill="#474747" d="M1428.59 1188.34C1427.45 1188.34 1426.34 1187.95 1425.45 1187.22 1415.55 1179.24 1417.73 1162.13 1418.01 1160.2 1418.22 1158.79 1419.02 1157.54 1420.2 1156.75 1421.39 1155.96 1422.85 1155.71 1424.23 1156.07L1446.16 1161.76C1448.12 1162.27 1449.58 1163.9 1449.87 1165.91 1450.15 1167.92 1449.2 1169.9 1447.45 1170.93 1440.62 1174.97 1435.34 1182.13 1432.8 1186.05 1432.03 1187.24 1430.79 1188.05 1429.38 1188.28 1429.12 1188.32 1428.86 1188.34 1428.59 1188.34zM1427.69 1167.33C1427.76 1169.66 1428.06 1172.26 1428.77 1174.54 1430.24 1172.72 1431.94 1170.79 1433.85 1168.93L1427.69 1167.33zM1529.3 1073.42C1530.67 1065.84 1527.26 1058.88 1521.68 1057.87 1516.1 1056.87 1510.46 1062.19 1509.09 1069.77 1507.73 1077.35 1511.14 1084.31 1516.72 1085.32 1522.3 1086.33 1527.93 1081 1529.3 1073.42zM1409.13 1060.93C1410.5 1053.35 1407.08 1046.39 1401.5 1045.38 1395.92 1044.37 1390.29 1049.7 1388.92 1057.28 1387.55 1064.86 1390.97 1071.82 1396.55 1072.83 1402.13 1073.84 1407.76 1068.51 1409.13 1060.93zM1437.35 1072.18C1436.85 1072.18 1436.34 1072.11 1435.83 1071.95 1433.2 1071.11 1431.74 1068.29 1432.57 1065.65 1433.33 1063.23 1433.06 1050.61 1432.35 1040.34 1432.16 1037.58 1434.24 1035.19 1437 1034.99 1439.78 1034.78 1442.16 1036.88 1442.35 1039.65 1442.74 1045.1 1443.84 1063.32 1442.13 1068.69 1441.45 1070.82 1439.48 1072.18 1437.35 1072.18L1437.35 1072.18z" class="color474747 svgShape"></path><path fill="#c4f2dd" d="M1549.65 1105.63C1547.79 1105.63 1546.01 1104.6 1545.14 1102.82 1543.93 1100.33 1544.96 1097.33 1547.45 1096.11L1570.22 1084.99C1572.71 1083.78 1575.71 1084.81 1576.92 1087.3 1578.14 1089.78 1577.11 1092.79 1574.62 1094L1551.85 1105.12C1551.14 1105.47 1550.39 1105.63 1549.65 1105.63zM1562.99 1112.48C1560.75 1112.48 1558.72 1110.97 1558.14 1108.7 1557.45 1106.02 1559.07 1103.29 1561.76 1102.6L1576.66 1098.81C1579.36 1098.1 1582.07 1099.75 1582.76 1102.43 1583.44 1105.11 1581.82 1107.84 1579.14 1108.52L1564.23 1112.32C1563.82 1112.43 1563.4 1112.48 1562.99 1112.48z" class="colorf2e2c4 svgShape"></path><path fill="#474747" d="M1506.21 956.501C1504.08 956.501 1502.11 955.137 1501.43 953.002 1500.59 950.365 1502.05 947.548 1504.69 946.709 1505.07 946.585 1543.32 934.129 1568.43 901.07 1570.1 898.86 1573.25 898.439 1575.45 900.11 1577.66 901.785 1578.09 904.928 1576.41 907.134 1549.33 942.805 1509.41 955.734 1507.72 956.269 1507.21 956.426 1506.71 956.501 1506.21 956.501H1506.21zM1598.32 936.515C1597.65 936.515 1596.97 936.381 1596.31 936.091 1593.77 934.978 1592.62 932.021 1593.74 929.484L1605.78 902.085C1606.89 899.552 1609.84 898.387 1612.38 899.513 1614.92 900.626 1616.07 903.583 1614.95 906.12L1602.92 933.519C1602.09 935.396 1600.25 936.515 1598.32 936.515zM1625.93 1012.12C1623.17 1012.12 1620.92 1009.88 1620.92 1007.11V973.726C1620.92 970.958 1623.17 968.712 1625.93 968.712 1628.7 968.712 1630.95 970.958 1630.95 973.726V1007.11C1630.95 1009.88 1628.7 1012.12 1625.93 1012.12zM1684.16 1037.76C1683.1 1037.76 1682.04 1037.43 1681.13 1036.74 1678.93 1035.06 1678.5 1031.92 1680.17 1029.71L1695.81 1009.15C1697.49 1006.94 1700.63 1006.52 1702.84 1008.2 1705.04 1009.87 1705.47 1013.02 1703.79 1015.22L1688.16 1035.78C1687.17 1037.08 1685.67 1037.76 1684.16 1037.76zM1631.02 1178.64C1629.45 1178.64 1627.9 1177.9 1626.92 1176.52 1625.32 1174.26 1625.86 1171.13 1628.12 1169.53 1632.62 1166.35 1644.45 1156.02 1645.15 1146.59 1645.35 1143.82 1647.78 1141.72 1650.51 1141.95 1653.27 1142.16 1655.35 1144.56 1655.15 1147.32 1653.97 1163.42 1634.72 1177.15 1633.9 1177.73 1633.02 1178.35 1632.02 1178.64 1631.02 1178.64zM1352.25 1063.46C1351.17 1063.46 1350.09 1063.12 1349.18 1062.41 1348.21 1061.66 1325.31 1043.63 1325.46 1019.41 1325.55 1005.4 1333.23 992.535 1348.29 981.162 1350.48 979.494 1353.64 979.928 1355.31 982.141 1356.98 984.351 1356.54 987.497 1354.33 989.165 1341.9 998.553 1335.56 1008.75 1335.49 1019.48 1335.37 1038.8 1355.12 1054.33 1355.32 1054.48 1357.51 1056.18 1357.91 1059.33 1356.21 1061.52 1355.22 1062.79 1353.75 1063.46 1352.25 1063.46V1063.46zM1312.58 1046.9C1310.5 1046.9 1308.56 1045.6 1307.84 1043.53 1289.87 991.898 1326.51 951.618 1328.08 949.927 1329.97 947.893 1333.13 947.782 1335.16 949.663 1337.19 951.54 1337.31 954.713 1335.43 956.743 1335.09 957.115 1301.36 994.398 1317.31 1040.23 1318.22 1042.85 1316.84 1045.71 1314.23 1046.62 1313.68 1046.81 1313.12 1046.9 1312.58 1046.9zM1296.1 963.121C1295.19 963.121 1294.28 962.879 1293.46 962.37 1291.1 960.914 1290.38 957.823 1291.84 955.47L1333.36 888.372C1334.81 886.015 1337.91 885.287 1340.26 886.746 1342.61 888.202 1343.34 891.293 1341.88 893.646L1300.36 960.744C1299.41 962.278 1297.77 963.121 1296.1 963.121zM1321.09 876.415C1318.85 876.415 1316.81 874.9 1316.23 872.625 1315.56 869.939 1317.19 867.213 1319.87 866.537L1347.38 859.62C1350.09 858.967 1352.8 860.573 1353.47 863.26 1354.14 865.946 1352.52 868.672 1349.83 869.348L1322.32 876.265C1321.91 876.366 1321.5 876.415 1321.09 876.415zM1340.61 841.655C1338.38 841.655 1336.34 840.153 1335.76 837.888 1335.07 835.208 1336.69 832.473 1339.37 831.784L1357.69 827.077C1360.38 826.378 1363.1 828.007 1363.79 830.687 1364.48 833.367 1362.87 836.102 1360.18 836.791L1341.86 841.498C1341.45 841.606 1341.03 841.655 1340.61 841.655z" class="color474747 svgShape"></path><path fill="#7c7c7c" d="M1082.78 1941.94C1074.82 1966.4 1051.69 1956.91 1051.69 1956.91C1051.69 1956.91 1051.56 1956.84 1051.23 1956.78C1044.74 1955.17 971.808 1936.39 933.571 1913.26C920 1905.1 910.775 1896.34 910.441 1887.65C909.773 1869.54 922.808 1857.64 941.927 1851.22C982.572 1837.58 1050.76 1848.61 1074.69 1877.02V1877.09C1088.8 1893.87 1090.73 1917.47 1082.78 1941.94Z" class="color7c7c7c svgShape"></path><path fill="#474747" d="M1061.77 1963.73C1055.21 1963.73 1050.12 1961.68 1049.79 1961.55C1049.24 1961.45 971.505 1942.06 930.974 1917.55C914.17 1907.45 905.811 1897.73 905.429 1887.85C904.734 1868.95 917.131 1854.26 940.329 1846.47C980.742 1832.89 1052.46 1842.85 1078.53 1873.79C1078.67 1873.97 1078.81 1874.15 1078.93 1874.34C1093.3 1891.82 1096.37 1916.35 1087.55 1943.49C1084.71 1952.2 1079.83 1958.22 1073.03 1961.37C1069.2 1963.14 1065.27 1963.73 1061.77 1963.73ZM1053.97 1952.44C1054.05 1952.45 1062.05 1955.44 1068.87 1952.24C1073.01 1950.3 1076.09 1946.31 1078.01 1940.39C1085.81 1916.41 1083.26 1895.08 1070.85 1880.32C1070.72 1880.16 1070.6 1880 1070.49 1879.83C1048.73 1854.72 983.775 1842.46 943.521 1855.97C930.35 1860.4 914.787 1869.45 915.449 1887.47C915.681 1893.44 923.032 1901.08 936.15 1908.96C975.405 1932.7 1051.66 1951.72 1052.43 1951.91C1052.8 1952 1053.62 1952.27 1053.97 1952.45C1053.97 1952.45 1053.97 1952.45 1053.97 1952.44V1952.44Z" class="color474747 svgShape"></path><path fill="#e3fff2" d="M1051.23 1956.78L994.94 2147.97C994.94 2147.97 1006.04 2169.09 1010.78 2204.72C1015.53 2240.42 1045.21 2284.94 1053.03 2300.18C1026.22 2313.02 992.934 2284.94 982.238 2267.36C947.209 2265.29 904.425 2302.79 878.688 2331.53C820.662 2373.65 810.435 2354.87 805.621 2348.92C768.386 2362.82 771.862 2334.94 771.862 2334.94C744.453 2345.57 731.886 2328.46 744.387 2321.57C810.836 2287.75 857.163 2187.27 910.442 2147.97C908.169 2115.28 922.542 1997.09 933.572 1913.26C936.781 1888.59 939.789 1866.86 941.928 1851.22C982.573 1837.58 1050.76 1848.61 1074.69 1877.02V1877.09L1051.23 1956.78H1051.23Z" class="colorfff6e3 svgShape"></path><path fill="#474747" d="M822.725 2363.18C813.755 2363.18 808.082 2359.44 803.959 2354.81C790.677 2359.18 780.624 2358.76 774.05 2353.57C769.797 2350.21 767.983 2345.59 767.242 2341.72C751.016 2346.02 739.293 2341.23 735.647 2333.42C732.814 2327.35 735.354 2320.83 741.967 2317.19C778.94 2298.36 809.651 2258.27 839.355 2219.5C861.584 2190.48 882.616 2163.02 905.292 2145.57C903.918 2110 917.107 1999.93 928.597 1912.61C931.332 1891.61 933.919 1872.74 935.946 1857.94L936.957 1850.54C937.215 1848.65 938.524 1847.08 940.329 1846.47C980.742 1832.89 1052.46 1842.85 1078.53 1873.79C1079.29 1874.7 1079.71 1875.84 1079.71 1877.03C1079.71 1877.51 1079.64 1878.05 1079.5 1878.51L1000.3 2147.51C1003.14 2153.53 1011.69 2173.56 1015.75 2204.06C1019.42 2231.66 1038.85 2265.28 1050.46 2285.37C1053.44 2290.52 1055.9 2294.8 1057.49 2297.9C1058.11 2299.1 1058.21 2300.5 1057.78 2301.79C1057.35 2303.07 1056.42 2304.12 1055.2 2304.7C1026.11 2318.66 992.232 2291.12 979.451 2272.29H979.36C941.466 2272.29 895.763 2319.98 882.422 2334.88C882.187 2335.15 881.918 2335.38 881.631 2335.59C853.057 2356.33 834.87 2363.18 822.727 2363.18L822.725 2363.18ZM805.621 2343.9C807.103 2343.9 808.55 2344.56 809.519 2345.76L810.279 2346.73C814.101 2351.67 824.233 2364.75 875.311 2327.79C894.021 2306.96 941.015 2259.9 982.535 2262.36C984.177 2262.45 985.665 2263.35 986.521 2264.76C995.952 2280.25 1023.43 2303.23 1045.85 2297.48C1044.66 2295.38 1043.28 2293 1041.78 2290.38C1029.79 2269.65 1009.75 2234.95 1005.81 2205.38C1001.26 2171.19 990.605 2150.5 990.498 2150.29C989.897 2149.14 989.763 2147.8 990.131 2146.55L1046.42 1955.36L1069.11 1878.31C1046.66 1854.83 986.048 1843.32 946.464 1855.05L945.883 1859.3C943.856 1874.08 941.274 1892.93 938.542 1913.9C921.699 2041.91 913.711 2122.73 915.441 2147.62C915.562 2149.33 914.798 2150.98 913.417 2152C891.051 2168.5 869.809 2196.23 847.316 2225.59C816.933 2265.25 785.518 2306.26 746.662 2326.04C745.51 2326.68 744.101 2327.82 744.737 2329.18C746.235 2332.39 755.202 2336.03 770.05 2330.27C771.702 2329.63 773.556 2329.91 774.946 2330.99C776.337 2332.08 777.055 2333.82 776.836 2335.57C776.833 2335.6 776.12 2342.47 780.308 2345.73C784.375 2348.91 792.749 2348.37 803.87 2344.22C804.441 2344.01 805.035 2343.9 805.623 2343.9H805.621Z" class="color474747 svgShape"></path><path fill="#e3fff2" d="M1730.97 1893.45C1700.57 1919.29 1637.54 1880.02 1617.78 1769.05C1615.56 1718.78 1646.77 1458.58 1646.77 1458.58L1631.01 1400.89C1631.01 1400.89 1573.67 1341.98 1596.76 1290.78C1605.83 1262.73 1584.74 1223.63 1610.36 1221.44C1625.47 1223.45 1635.99 1279.56 1635.99 1279.56C1635.99 1279.56 1651.09 1203.84 1673.76 1207.7C1696.42 1211.56 1700.51 1233.98 1700.51 1233.98C1700.51 1233.98 1702.95 1242.28 1715.87 1257.2C1728.8 1272.13 1721.56 1311.63 1721.56 1311.63C1721.56 1311.63 1739.38 1313.58 1736.97 1328.65C1734.56 1343.73 1733.66 1349.68 1741.18 1367.22C1748.7 1384.76 1742.53 1455.5 1741.18 1471.77C1741.18 1471.77 1781.86 1694.91 1779.65 1743.03C1777.43 1791.15 1764.12 1865.28 1730.97 1893.45Z" class="colorfff6e3 svgShape"></path><path fill="#474747" d="M1709.89 1906.12C1704.62 1906.12 1699.08 1905.11 1693.43 1903.08C1664.05 1892.52 1627.45 1851.99 1612.84 1769.93C1610.6 1720.22 1639.29 1478.97 1641.68 1458.95L1626.5 1403.43C1618.8 1395.18 1569.34 1339.38 1592.19 1288.72C1595.32 1278.93 1594.13 1266.29 1593.08 1255.14C1591.8 1241.64 1590.7 1229.99 1596.87 1222.6C1599.87 1219 1604.27 1216.93 1609.94 1216.44C1610.3 1216.42 1610.67 1216.42 1611.03 1216.47C1622.78 1218.04 1631.12 1239.56 1636.09 1257.65C1642.82 1233.47 1655.69 1199.54 1674.6 1202.76C1700.29 1207.13 1705.19 1231.75 1705.44 1233.06V1233.05C1705.48 1233.05 1708.21 1240.7 1719.66 1253.92C1731.39 1267.47 1728.87 1296.09 1727.24 1307.79C1730.84 1308.92 1735.51 1311.12 1738.72 1315.32C1741.67 1319.19 1742.78 1324.08 1741.92 1329.44C1739.59 1344.03 1738.8 1348.95 1745.79 1365.25C1751.03 1377.47 1751.2 1411.94 1746.31 1470.61L1746.23 1471.53C1749.11 1487.36 1786.83 1695.96 1784.66 1743.26C1782.2 1796.62 1767.52 1868.97 1734.22 1897.27C1727.31 1903.13 1718.98 1906.12 1709.89 1906.12ZM1610.14 1226.5C1606.27 1226.98 1605 1228.51 1604.57 1229.03C1601.08 1233.21 1602.04 1243.4 1603.06 1254.2C1604.2 1266.32 1605.5 1280.05 1601.53 1292.32C1579.93 1340.29 1634.05 1396.83 1634.6 1397.39C1635.19 1398 1635.62 1398.75 1635.84 1399.56L1651.61 1457.26C1651.78 1457.88 1651.83 1458.53 1651.75 1459.18C1651.44 1461.78 1620.61 1719.54 1622.78 1768.83C1636.59 1846.11 1671.31 1884.47 1696.82 1893.64C1708.68 1897.91 1719.66 1896.48 1727.73 1889.63V1889.62C1756.6 1865.09 1772.09 1798.21 1774.64 1742.8C1776.8 1695.79 1736.65 1474.89 1736.25 1472.67C1736.17 1472.24 1736.15 1471.8 1736.18 1471.36L1736.32 1469.78C1742.16 1399.77 1739.68 1376.44 1736.57 1369.2C1728.45 1350.23 1729.57 1343.22 1732.02 1327.86C1732.45 1325.2 1732.03 1323.09 1730.75 1321.41C1728.22 1318.09 1722.74 1316.81 1721.02 1316.62C1719.63 1316.47 1718.37 1315.75 1717.54 1314.63C1716.71 1313.52 1716.38 1312.1 1716.63 1310.73C1718.52 1300.4 1721.38 1271.22 1712.09 1260.49C1698.83 1245.18 1695.98 1236.34 1695.7 1235.39C1695.43 1234.12 1691.73 1215.85 1672.92 1212.65C1660.86 1210.65 1646.62 1251.94 1640.91 1280.55C1640.44 1282.89 1638.38 1284.58 1635.99 1284.58H1635.96C1633.56 1284.56 1631.5 1282.85 1631.06 1280.49C1626.49 1256.16 1616.9 1228.51 1610.14 1226.5L1610.14 1226.5Z" class="color474747 svgShape"></path><path fill="#fcfcfc" d="M1604.54 1155.98L1635.99 1279.56L1645.79 1238.67L1617.78 1142.21L1604.54 1155.98Z" class="colorfcfcfc svgShape"></path><path fill="#474747" d="M1635.99 1284.57C1633.7 1284.57 1631.7 1283.02 1631.13 1280.8L1599.68 1157.22C1599.25 1155.54 1599.73 1153.76 1600.93 1152.51L1614.16 1138.74C1615.4 1137.45 1617.24 1136.91 1618.98 1137.35C1620.72 1137.77 1622.09 1139.09 1622.59 1140.81L1650.61 1237.27C1650.85 1238.11 1650.87 1238.99 1650.67 1239.84L1640.86 1280.73C1640.33 1282.97 1638.33 1284.56 1636.02 1284.57H1635.99L1635.99 1284.57ZM1610.09 1157.45L1635.84 1258.66L1640.61 1238.79L1615.38 1151.94L1610.09 1157.45Z" class="color474747 svgShape"></path><path fill="#fcfcfc" d="M1640.58 1304.02L1673.76 1406.9L1692.31 1430.5L1693.69 1401L1679.84 1345.16C1679.84 1345.16 1655.75 1350.03 1658.73 1325.99L1670.09 1302.13L1661.84 1295.1C1661.84 1295.1 1659.44 1313.49 1640.58 1304.02Z" class="colorfcfcfc svgShape"></path><path fill="#474747" d="M1692.31 1435.51C1690.8 1435.51 1689.34 1434.83 1688.37 1433.6L1669.82 1410C1669.45 1409.53 1669.17 1409.01 1668.99 1408.44L1635.81 1305.56C1635.19 1303.64 1635.78 1301.53 1637.32 1300.22C1638.85 1298.9 1641.03 1298.64 1642.83 1299.54C1645.87 1301.07 1650.1 1302.59 1652.9 1301.13C1656.06 1299.48 1656.87 1294.47 1656.87 1294.42C1657.14 1292.62 1658.36 1291.08 1660.07 1290.43C1661.79 1289.79 1663.7 1290.11 1665.09 1291.28L1673.34 1298.31C1675.07 1299.78 1675.6 1302.23 1674.62 1304.28L1663.62 1327.39C1663.13 1332.3 1663.99 1335.82 1666.18 1337.86C1669.69 1341.15 1676.53 1340.7 1678.86 1340.24C1681.47 1339.73 1684.06 1341.36 1684.7 1343.95L1698.56 1399.79C1698.68 1400.26 1698.72 1400.74 1698.7 1401.23L1697.32 1430.73C1697.23 1432.82 1695.84 1434.63 1693.84 1435.27C1693.34 1435.43 1692.83 1435.51 1692.32 1435.51L1692.31 1435.51ZM1678.25 1404.51L1687.93 1416.82L1688.65 1401.49L1676.02 1350.58C1671.46 1350.72 1664.49 1349.98 1659.38 1345.24C1659.26 1345.13 1659.15 1345.02 1659.04 1344.91L1678.25 1404.51ZM1648.31 1311.66L1653.53 1327.83C1653.58 1327.03 1653.65 1326.21 1653.76 1325.38C1653.82 1324.84 1653.97 1324.32 1654.21 1323.84L1663.16 1305.02C1661.84 1306.9 1660.05 1308.69 1657.63 1309.97C1654.85 1311.44 1651.73 1312.01 1648.31 1311.66Z" class="color474747 svgShape"></path><path fill="#474747" d="M1661.84 1300.12C1661.08 1300.12 1660.31 1299.95 1659.59 1299.58 1657.11 1298.34 1656.12 1295.33 1657.36 1292.85L1687.84 1232.23C1689.08 1229.76 1692.08 1228.75 1694.57 1230 1697.04 1231.24 1698.04 1234.26 1696.79 1236.73L1666.32 1297.36C1665.44 1299.11 1663.67 1300.12 1661.84 1300.12zM1670.09 1307.14C1669.1 1307.14 1668.1 1306.85 1667.22 1306.24 1664.95 1304.66 1664.39 1301.53 1665.98 1299.26L1702.17 1247.36C1703.76 1245.09 1706.88 1244.53 1709.15 1246.12 1711.42 1247.7 1711.98 1250.83 1710.4 1253.1L1674.2 1305C1673.23 1306.4 1671.67 1307.14 1670.09 1307.14zM1679.83 1350.18C1678.88 1350.18 1677.91 1349.91 1677.06 1349.34 1674.75 1347.8 1674.13 1344.69 1675.66 1342.39L1717.38 1279.65C1718.92 1277.34 1722.03 1276.73 1724.33 1278.25 1726.64 1279.79 1727.27 1282.9 1725.73 1285.21L1684.01 1347.94C1683.04 1349.39 1681.45 1350.18 1679.83 1350.18zM1689.25 1388.12C1688.08 1388.12 1686.9 1387.71 1685.95 1386.87 1683.87 1385.05 1683.66 1381.88 1685.48 1379.8L1733.2 1325.35C1735.02 1323.26 1738.19 1323.05 1740.28 1324.88 1742.36 1326.7 1742.57 1329.87 1740.74 1331.95L1693.02 1386.41C1692.03 1387.54 1690.65 1388.12 1689.25 1388.12zM1670.01 1449.95H1669.87C1659.46 1449.49 1648.89 1433.97 1645.9 1429.22 1644.58 1427.12 1645 1424.35 1646.89 1422.74L1666.84 1405.73C1668.95 1403.94 1672.11 1404.18 1673.91 1406.29 1675.7 1408.4 1675.45 1411.56 1673.35 1413.36L1656.82 1427.45C1661.2 1433.48 1666.77 1439.2 1669.85 1439.87 1677.14 1436.66 1710.59 1402.57 1739.35 1370.79 1741.21 1368.72 1744.38 1368.57 1746.43 1370.43 1748.49 1372.29 1748.64 1375.46 1746.79 1377.51 1703.31 1425.58 1677.48 1449.95 1670.01 1449.95L1670.01 1449.95z" class="color474747 svgShape"></path><path fill="#474747" d="M1665.2 1418.73C1663.42 1418.73 1661.69 1417.77 1660.79 1416.09L1645.74 1388.17C1644.82 1386.46 1644.96 1384.37 1646.11 1382.81L1657.81 1366.98C1659.46 1364.75 1662.6 1364.28 1664.82 1365.92 1667.05 1367.56 1667.52 1370.7 1665.88 1372.93L1656.07 1386.21 1669.61 1411.33C1670.93 1413.77 1670.01 1416.82 1667.58 1418.13 1666.82 1418.54 1666.01 1418.73 1665.2 1418.73zM1632.35 1317.86C1632.04 1317.86 1631.72 1317.83 1631.4 1317.77 1628.68 1317.25 1626.9 1314.63 1627.42 1311.91 1630.82 1294.07 1630.11 1275.69 1630.1 1275.51 1629.99 1272.74 1632.14 1270.4 1634.91 1270.29 1637.54 1270.17 1640 1272.32 1640.12 1275.09 1640.16 1275.89 1640.89 1294.78 1637.27 1313.78 1636.81 1316.19 1634.71 1317.86 1632.35 1317.86L1632.35 1317.86zM1086.26 1947.41C1083.41 1947.41 1081.56 1946.82 1081.1 1946.66 1078.49 1945.74 1077.13 1942.87 1078.06 1940.26 1078.98 1937.65 1081.86 1936.28 1084.46 1937.21 1084.6 1937.25 1091.2 1939.04 1100.57 1930.33 1107.96 1923.44 1118.45 1868.22 1123.54 1831.2 1123.6 1830.75 1123.72 1830.32 1123.9 1829.91 1128.43 1819.31 1139.96 1789.31 1138.83 1777.87 1138.69 1776.46 1139.16 1775.05 1140.11 1774 1147.1 1764.55 1180.16 1627.41 1199.34 1543.22 1199.96 1540.52 1202.65 1538.83 1205.34 1539.44 1208.04 1540.06 1209.73 1542.74 1209.12 1545.44 1197.67 1595.71 1160.68 1755.78 1148.91 1778.58 1149.34 1794.71 1135.97 1827.11 1133.39 1833.23 1131.04 1850.15 1119.92 1926.01 1107.4 1937.67 1098.71 1945.76 1091.06 1947.41 1086.26 1947.41z" class="color474747 svgShape"></path><path fill="#474747" d="M1128.5 1836.89C1125.88 1836.89 1123.68 1834.85 1123.5 1832.2C1121.14 1795.94 1066.78 1751.09 1066.23 1750.64C1064.09 1748.89 1063.77 1745.73 1065.53 1743.59C1067.28 1741.45 1070.43 1741.13 1072.58 1742.88C1074.96 1744.82 1130.87 1790.94 1133.51 1831.55C1133.69 1834.32 1131.6 1836.7 1128.83 1836.88C1128.72 1836.89 1128.61 1836.89 1128.5 1836.89Z" class="color474747 svgShape"></path><path fill="#474747" d="M1130.89 1831.05C1128.52 1831.05 1126.41 1829.35 1125.97 1826.93 1121.46 1802.03 1107.43 1733.91 1096.81 1717.97 1095.27 1715.67 1095.89 1712.56 1098.2 1711.02 1100.5 1709.48 1103.61 1710.1 1105.15 1712.41 1119.09 1733.33 1135.16 1821.4 1135.83 1825.14 1136.33 1827.87 1134.52 1830.47 1131.79 1830.97 1131.49 1831.02 1131.19 1831.05 1130.89 1831.05zM1082.79 1798.62C1081.44 1798.62 1080.08 1798.07 1079.1 1796.99 1052.36 1767.8 972.827 1772.75 972.031 1772.81 969.188 1773 966.877 1770.9 966.694 1768.14 966.508 1765.38 968.597 1762.99 971.358 1762.8 974.815 1762.58 1056.5 1757.48 1086.49 1790.21 1088.36 1792.26 1088.22 1795.43 1086.18 1797.3 1085.22 1798.18 1084 1798.62 1082.79 1798.62zM1055.16 1764.08C1054.12 1764.08 1053.07 1763.76 1052.18 1763.1 1045.12 1757.85 1028.03 1755.3 1022.04 1754.76 1019.28 1754.51 1017.25 1752.08 1017.49 1749.32 1017.74 1746.56 1020.11 1744.49 1022.94 1744.77 1025.43 1745 1047.59 1747.2 1058.16 1755.05 1060.38 1756.7 1060.84 1759.84 1059.19 1762.06 1058.21 1763.39 1056.69 1764.08 1055.16 1764.08zM1064.15 1682.35C1062.76 1682.35 1061.39 1681.78 1060.4 1680.67 1041.87 1659.83 1006.6 1659.36 1006.24 1659.36 1003.48 1659.34 1001.24 1657.09 1001.26 1654.32 1001.27 1651.56 1003.51 1649.33 1006.27 1649.33 1007.51 1649.67 1046.23 1649.64 1067.89 1674 1069.73 1676.07 1069.55 1679.24 1067.48 1681.08 1066.52 1681.93 1065.33 1682.35 1064.15 1682.35zM1129.53 1707.43C1126.96 1707.43 1124.77 1705.46 1124.54 1702.85L1120.78 1659.2C1120.55 1656.45 1122.59 1654.02 1125.35 1653.78 1128.17 1653.56 1130.54 1655.59 1130.77 1658.34L1134.53 1701.98C1134.77 1704.74 1132.73 1707.17 1129.97 1707.41 1129.82 1707.42 1129.68 1707.43 1129.53 1707.43zM1144.7 1682.35C1144.62 1682.35 1144.53 1682.35 1144.44 1682.34 1141.68 1682.2 1139.55 1679.85 1139.69 1677.08 1143.86 1594.88 1146.85 1374.42 1111.06 1341.79 1108.05 1339.04 1105.08 1338 1101.69 1338.46 1098.96 1338.89 1096.41 1336.96 1096.02 1334.21 1095.62 1331.47 1097.52 1328.93 1100.26 1328.54 1106.68 1327.63 1112.57 1329.58 1117.82 1334.38 1164.42 1376.86 1150.33 1665.33 1149.7 1677.59 1149.57 1680.27 1147.35 1682.35 1144.7 1682.35zM1210.06 1608.01C1209.22 1608.01 1208.37 1607.8 1207.59 1607.36 1205.18 1605.99 1204.33 1602.93 1205.7 1600.52 1206.31 1599.44 1266.94 1492.5 1278.42 1460.57 1279.35 1457.97 1282.23 1456.62 1284.83 1457.56 1287.44 1458.49 1288.79 1461.36 1287.85 1463.97 1276.08 1496.7 1216.93 1601.04 1214.42 1605.47 1213.5 1607.1 1211.8 1608.01 1210.06 1608.01zM1242.29 1507.49C1241.84 1507.49 1241.38 1507.43 1240.93 1507.31 1238.26 1506.56 1236.71 1503.79 1237.46 1501.12L1250.99 1453.02C1251.74 1450.36 1254.52 1448.82 1257.17 1449.55 1259.84 1450.3 1261.39 1453.07 1260.64 1455.73L1247.11 1503.84C1246.49 1506.05 1244.48 1507.49 1242.29 1507.49zM1210.47 1515.01C1210 1515.01 1209.53 1514.95 1209.06 1514.81 1206.41 1514.03 1204.88 1511.25 1205.65 1508.59L1240.33 1389.62C1241.11 1386.96 1243.89 1385.45 1246.55 1386.21 1249.21 1386.99 1250.74 1389.77 1249.96 1392.43L1215.28 1511.4C1214.64 1513.59 1212.64 1515.01 1210.47 1515.01zM1242.28 1353.94C1239.67 1353.94 1237.47 1351.93 1237.28 1349.29 1234.07 1304.95 1191.59 1272.5 1191.16 1272.18 1188.95 1270.51 1188.51 1267.37 1190.17 1265.16 1191.83 1262.94 1194.98 1262.49 1197.2 1264.17 1199.09 1265.59 1243.75 1299.73 1247.28 1348.57 1247.48 1351.33 1245.41 1353.73 1242.65 1353.93 1242.52 1353.94 1242.4 1353.94 1242.28 1353.94zM1296.36 1782.39C1296.29 1782.39 1296.23 1782.39 1296.16 1782.38 1254.76 1780.82 1176.2 1749.34 1172.88 1748 1170.31 1746.97 1169.07 1744.05 1170.1 1741.48 1171.13 1738.91 1174.06 1737.66 1176.63 1738.7 1177.42 1739.02 1256.89 1770.87 1296.54 1772.36 1299.31 1772.47 1301.47 1774.79 1301.36 1777.56 1301.26 1780.26 1299.04 1782.39 1296.36 1782.39zM1406.89 1852.02C1309.16 1852.02 1219.29 1784.49 1215.19 1781.36 1212.99 1779.68 1212.56 1776.54 1214.24 1774.34 1215.92 1772.13 1219.07 1771.7 1221.27 1773.38 1222.33 1774.19 1328.5 1853.93 1431.61 1840.41 1434.35 1840.06 1436.87 1841.98 1437.23 1844.73 1437.6 1847.47 1435.66 1849.99 1432.92 1850.35 1424.22 1851.49 1415.52 1852.02 1406.89 1852.02zM1319.06 1947.39C1318.89 1947.39 1318.72 1947.38 1318.55 1947.36 1245.14 1939.88 1160.12 1820.16 1156.54 1815.07 1154.95 1812.8 1155.49 1809.68 1157.76 1808.08 1160.02 1806.49 1163.15 1807.03 1164.74 1809.3 1165.59 1810.51 1250.69 1930.36 1319.56 1937.39 1322.32 1937.67 1324.32 1940.13 1324.04 1942.89 1323.78 1945.47 1321.6 1947.39 1319.06 1947.39L1319.06 1947.39zM1469.67 1816.08C1467.56 1816.08 1465.6 1814.74 1464.91 1812.63 1464.04 1809.99 1465.48 1807.16 1468.11 1806.3 1469.08 1805.98 1565.58 1773.98 1614.38 1728.89 1616.41 1727.02 1619.57 1727.14 1621.46 1729.18 1623.34 1731.21 1623.21 1734.38 1621.18 1736.26 1570.77 1782.84 1475.28 1814.5 1471.23 1815.83 1470.72 1816 1470.19 1816.08 1469.67 1816.08zM1395.91 1647.3C1394.9 1647.3 1393.89 1646.99 1393 1646.37 1390.75 1644.76 1390.22 1641.63 1391.83 1639.37L1510.38 1473.12C1511.99 1470.86 1515.12 1470.35 1517.38 1471.94 1519.63 1473.55 1520.15 1476.68 1518.55 1478.94L1400 1645.19C1399.02 1646.57 1397.47 1647.3 1395.91 1647.3zM1417.7 1663.79C1415.85 1663.79 1414.07 1662.76 1413.2 1660.98 1411.97 1658.5 1413 1655.49 1415.49 1654.27 1470.44 1627.3 1474.2 1554.84 1474.23 1554.11 1474.35 1551.35 1476.66 1549.14 1479.45 1549.32 1482.22 1549.44 1484.37 1551.77 1484.25 1554.53 1484.12 1557.75 1480.27 1633.65 1419.91 1663.28 1419.19 1663.62 1418.44 1663.79 1417.7 1663.79H1417.7zM1624.35 1670.86C1622.35 1670.86 1620.47 1669.67 1619.69 1667.7 1619.67 1667.67 1616.66 1660.59 1601.9 1638.37 1592.55 1624.3 1596.64 1606.18 1600.97 1587 1604.66 1570.66 1608.85 1552.13 1605.43 1533.54 1597.8 1491.96 1600.95 1462.92 1601.09 1461.71 1601.4 1458.95 1603.91 1457.01 1606.63 1457.29 1609.39 1457.6 1611.36 1460.08 1611.05 1462.83 1611.03 1463.12 1607.95 1491.72 1615.3 1531.73 1619.08 1552.34 1614.65 1571.93 1610.75 1589.21 1606.74 1606.98 1603.28 1622.33 1610.25 1632.82 1625.62 1655.94 1628.7 1663.23 1629 1663.99 1630.03 1666.56 1628.78 1669.47 1626.2 1670.5 1625.6 1670.74 1624.97 1670.86 1624.35 1670.86z" class="color474747 svgShape"></path><path fill="#83ffc7" d="M1724.6 2240.28C1752.48 2267.22 1706.29 2291.89 1633.42 2318.3C1560.49 2344.71 1393.1 2261.41 1337.61 2259.4C1337.61 2259.4 1375.25 2214.21 1365.29 2137C1455.87 2153.51 1604.48 2178.78 1660.9 2179.58C1717.39 2180.32 1717.99 2162.87 1748.81 2196.43C1748.81 2196.43 1755.16 2218.89 1724.61 2240.28L1724.6 2240.28Z" class="colorffed83 svgShape"></path><path fill="#474747" d="M1598.98 2328.41C1550.18 2328.42 1485.08 2307.1 1430.44 2289.22 1390.93 2276.29 1356.8 2265.11 1337.43 2264.42 1335.52 2264.35 1333.82 2263.2 1333.04 2261.45 1332.26 2259.71 1332.54 2257.67 1333.75 2256.2 1334.12 2255.77 1369.85 2211.57 1360.31 2137.65 1360.11 2136.06 1360.67 2134.47 1361.83 2133.37 1362.99 2132.26 1364.62 2131.78 1366.18 2132.07 1434.73 2144.56 1600.68 2173.71 1660.97 2174.57 1678.43 2174.78 1690.3 2173.27 1699.81 2172.04 1722.49 2169.11 1730.71 2169.32 1752.49 2193.04 1753.03 2193.62 1753.41 2194.31 1753.63 2195.06 1753.91 2196.07 1759.94 2218.84 1732.02 2241.01 1737.01 2247.37 1738.8 2254 1737.35 2260.78 1733.21 2280.17 1703.6 2298.2 1635.13 2323.01 1624.7 2326.79 1612.46 2328.41 1598.97 2328.41L1598.98 2328.41zM1346.73 2255.23C1367.84 2258.18 1398.63 2268.26 1433.56 2279.69 1501.83 2302.04 1586.78 2329.85 1631.72 2313.58 1670.85 2299.4 1723.37 2278.28 1727.55 2258.68 1728.57 2253.9 1726.47 2249.06 1721.12 2243.89 1720.04 2242.85 1719.49 2241.38 1719.61 2239.89 1719.72 2238.4 1720.5 2237.04 1721.73 2236.18 1745.39 2219.61 1744.8 2203.11 1744.17 2198.8 1725.62 2178.81 1720.25 2179.51 1701.1 2181.99 1691.79 2183.19 1679.09 2184.84 1660.83 2184.6 1601.67 2183.76 1443.36 2156.25 1371.03 2143.14 1376.62 2200.8 1356.68 2239.78 1346.73 2255.23zM1508.25 2061.12C1507.1 2061.12 1505.93 2060.72 1504.99 2059.9 1502.89 2058.1 1502.65 2054.94 1504.45 2052.83 1536.9 2015.04 1715.34 1977.69 1722.92 1976.11 1725.63 1975.57 1728.29 1977.3 1728.85 1980 1729.41 1982.72 1727.67 1985.37 1724.96 1985.93 1723.14 1986.31 1542.3 2024.15 1512.06 2059.37 1511.07 2060.52 1509.67 2061.12 1508.25 2061.12H1508.25z" class="color474747 svgShape"></path><path fill="#474747" d="M1606.39 2016.09C1605.44 2016.09 1604.47 2015.82 1603.62 2015.25 1601.31 2013.71 1600.69 2010.6 1602.23 2008.29 1615.77 1987.99 1675.26 1951.47 1677.78 1949.93 1680.14 1948.49 1683.24 1949.22 1684.68 1951.59 1686.12 1953.95 1685.38 1957.04 1683.01 1958.48 1682.42 1958.85 1622.89 1995.38 1610.57 2013.86 1609.6 2015.31 1608.01 2016.09 1606.39 2016.09zM921.581 1909.87C920.755 1909.87 919.92 1909.66 919.149 1909.24 918.261 1908.74 830.237 1859.83 807.443 1847.61 805.005 1846.3 804.084 1843.26 805.393 1840.82 806.702 1838.38 809.738 1837.47 812.182 1838.77 835.041 1851.02 923.13 1899.98 924.018 1900.47 926.44 1901.81 927.312 1904.87 925.967 1907.29 925.05 1908.94 923.339 1909.87 921.58 1909.87L921.581 1909.87z" class="color474747 svgShape"></path><path fill="#474747" d="M921.586 1909.86C919.83 1909.86 918.126 1908.94 917.209 1907.3 895.026 1867.68 849.432 1857.17 848.975 1857.07 846.276 1856.47 844.565 1853.79 845.162 1851.09 845.759 1848.39 848.433 1846.68 851.129 1847.27 853.176 1847.72 901.524 1858.77 925.956 1902.4 927.311 1904.82 926.449 1907.87 924.03 1909.22 923.256 1909.66 922.414 1909.86 921.585 1909.86L921.586 1909.86zM1365.29 2142.02C1363.39 2142.02 1361.58 2140.94 1360.73 2139.1 1359.83 2137.15 1360.29 2134.92 1361.72 2133.48 1362.03 2132.42 1362.85 2127.85 1359.43 2114.45 1358.74 2111.76 1360.36 2109.03 1363.04 2108.35 1365.73 2107.66 1368.46 2109.28 1369.14 2111.97 1373.5 2129.05 1372.91 2139.01 1367.38 2141.56 1366.71 2141.87 1365.99 2142.02 1365.29 2142.02zM1363.1 2132.49C1363.1 2132.49 1363.09 2132.5 1363.09 2132.5 1363.09 2132.5 1363.09 2132.49 1363.1 2132.49zM1363.11 2132.49C1363.11 2132.49 1363.1 2132.49 1363.1 2132.49 1363.1 2132.49 1363.11 2132.49 1363.11 2132.49zM1363.13 2132.48C1363.12 2132.48 1363.12 2132.48 1363.11 2132.49 1363.12 2132.48 1363.12 2132.48 1363.13 2132.48zM1363.14 2132.47C1363.14 2132.47 1363.13 2132.47 1363.13 2132.48 1363.13 2132.48 1363.14 2132.47 1363.14 2132.47zM1363.16 2132.46C1363.15 2132.46 1363.15 2132.47 1363.14 2132.47 1363.15 2132.47 1363.15 2132.46 1363.16 2132.46zM1363.17 2132.45C1363.17 2132.45 1363.16 2132.46 1363.16 2132.46 1363.16 2132.46 1363.17 2132.46 1363.17 2132.45zM1363.19 2132.45C1363.18 2132.45 1363.18 2132.45 1363.17 2132.45 1363.18 2132.45 1363.18 2132.45 1363.19 2132.45zM1239.86 2264.39C1238.09 2264.39 1236.37 2263.45 1235.46 2261.79 1234.13 2259.36 1235.02 2256.31 1237.44 2254.98 1237.66 2254.86 1259.33 2242.71 1271.33 2216.71 1272.49 2214.2 1275.46 2213.09 1277.99 2214.25 1280.5 2215.42 1281.6 2218.39 1280.44 2220.91 1266.99 2250.05 1243.26 2263.24 1242.25 2263.78 1241.49 2264.2 1240.67 2264.39 1239.86 2264.39z" class="color474747 svgShape"></path><path fill="#474747" d="M1257.87 2249.9C1257.65 2249.9 1257.41 2249.89 1257.18 2249.86 1254.44 2249.48 1252.52 2246.94 1252.9 2244.2 1253.41 2240.56 1265.42 2154.81 1278.5 2123.19 1280.92 2117.35 1284.2 2114.67 1288.32 2115.29 1292.1 2115.84 1303.6 2117.52 1314.44 2223.7 1314.72 2226.45 1312.72 2228.91 1309.96 2229.19 1307.22 2229.47 1304.75 2227.47 1304.46 2224.72 1300.41 2185.04 1293.16 2139.92 1287.53 2127.59 1275.02 2158.55 1262.96 2244.71 1262.83 2245.58 1262.49 2248.09 1260.34 2249.91 1257.88 2249.91L1257.87 2249.9zM1749.35 1969.22C1747.26 1969.22 1745.3 1967.89 1744.6 1965.8 1743.72 1963.17 1745.13 1960.33 1747.75 1959.45 1748.84 1959.08 1774.86 1950.44 1810.31 1946.45 1813.04 1946.11 1815.54 1948.12 1815.85 1950.88 1816.16 1953.63 1814.18 1956.11 1811.43 1956.42 1777.1 1960.27 1751.2 1968.87 1750.95 1968.95 1750.42 1969.13 1749.88 1969.22 1749.35 1969.22L1749.35 1969.22z" class="color474747 svgShape"></path><path fill="#83ffc7" d="M1461.27 2090.92C1461.27 2090.92 1488.05 2117.52 1488.59 2130.34L1461.27 2090.92Z" class="colorffed83 svgShape"></path><path fill="#474747" d="M1488.58 2135.35C1485.91 2135.35 1483.69 2133.24 1483.57 2130.55 1483.26 2123.07 1468.28 2104.96 1457.74 2094.48 1455.77 2092.53 1455.76 2089.35 1457.71 2087.39 1459.66 2085.42 1462.84 2085.42 1464.8 2087.37 1469.51 2092.04 1493.01 2116.06 1493.6 2130.13 1493.71 2132.89 1491.56 2135.23 1488.79 2135.35 1488.72 2135.35 1488.65 2135.35 1488.58 2135.35zM805.598 2353.83C805.059 2353.83 804.514 2353.74 803.979 2353.55 801.41 2352.64 800.007 2349.93 800.858 2347.35 805.216 2334.14 894.17 2247.13 911.96 2229.82 913.941 2227.9 917.121 2227.93 919.05 2229.92 920.979 2231.91 920.937 2235.08 918.952 2237.01 868.589 2286.02 813.422 2342.45 810.373 2350.51 809.609 2352.53 807.657 2353.83 805.598 2353.83V2353.83zM771.86 2339.96C769.826 2339.96 767.914 2338.71 767.163 2336.7 766.194 2334.1 767.516 2331.21 770.111 2330.25 783.582 2325.23 837.907 2270.93 871.136 2235.66 873.036 2233.64 876.212 2233.54 878.222 2235.44 880.239 2237.34 880.334 2240.52 878.434 2242.53 869.81 2251.69 793.589 2332.2 773.609 2339.64 773.035 2339.86 772.441 2339.96 771.86 2339.96zM1724.61 2245.3C1724.17 2245.3 1723.73 2245.24 1723.29 2245.13L1701.03 2239.09C1698.35 2238.37 1696.78 2235.61 1697.5 2232.94 1698.22 2230.27 1700.98 2228.7 1703.65 2229.41L1725.92 2235.45C1728.59 2236.17 1730.17 2238.92 1729.44 2241.6 1728.84 2243.83 1726.81 2245.3 1724.61 2245.3L1724.61 2245.3zM1730.98 1519.03C1730.59 1519.03 1730.19 1518.98 1729.8 1518.89 1727.11 1518.24 1725.45 1515.53 1726.1 1512.84L1736.31 1470.59C1736.96 1467.9 1739.67 1466.25 1742.36 1466.9 1745.05 1467.55 1746.71 1470.25 1746.06 1472.95L1735.85 1515.19C1735.29 1517.49 1733.24 1519.03 1730.98 1519.03zM1713.45 1569.07C1712.89 1569.07 1712.33 1568.98 1711.77 1568.78 1709.16 1567.85 1707.8 1564.98 1708.73 1562.38L1719.61 1531.84C1720.54 1529.23 1723.4 1527.86 1726.01 1528.8 1728.62 1529.73 1729.98 1532.59 1729.05 1535.2L1718.18 1565.74C1717.44 1567.79 1715.51 1569.07 1713.45 1569.07z" class="color474747 svgShape"></path><path fill="#7c7c7c" d="M1443.93 2213.22C1443.43 2213.22 1442.92 2213.15 1442.43 2212.99C1440.2 2212.29 1387.83 2195.57 1383.44 2165.01C1381.18 2149.3 1391.77 2133.49 1414.91 2118.04C1437.02 2103.28 1448.73 2089.29 1450.73 2075.27C1453.51 2055.8 1437.1 2036.28 1419.73 2015.61C1411.66 2006.01 1403.32 1996.08 1396.17 1985.44C1389.6 1975.66 1389.81 1962.98 1396.78 1947.76C1426.4 1883.09 1577.11 1779.88 1684.91 1766.85C1733 1761.04 1777.44 1762.15 1813.13 1763.06C1875.31 1764.63 1907.98 1764.26 1912.25 1738.91C1916.41 1714.12 1936.03 1705.02 1951.8 1697.71C1962.41 1692.79 1971.57 1688.54 1974.14 1681.08C1976.1 1675.37 1974.42 1667.46 1968.99 1656.89C1965.02 1649.15 1964.68 1641.84 1967.99 1635.17C1979.6 1611.73 2034.79 1601.89 2104.66 1589.43C2158.76 1579.77 2220.08 1568.84 2263.73 1549.73C2291.07 1537.77 2323.96 1525.23 2355.77 1513.1C2410.75 1492.14 2493.83 1460.46 2492.54 1447.25C2492.52 1447.04 2491.77 1442.05 2468.39 1438.06C2436.9 1432.68 2423.58 1425.78 2425.2 1415.66C2428.49 1394.93 2514.17 1385.18 2558.35 1391.73C2578.11 1394.65 2582.12 1406.65 2582.75 1413.54C2586.76 1457.37 2483.03 1552.78 2400.8 1580.88C2388.49 1585.77 2388.51 1594.37 2389.73 1611.8C2391.76 1640.81 2394.53 1680.54 2309.33 1711.69C2251.04 1732.99 2205.46 1735.52 2172.19 1737.36C2130.62 1739.67 2107.73 1740.94 2095.1 1773.63C2067.41 1845.35 1990.98 1835.66 1912.54 1814.5C1826.52 1791.34 1671.07 1824.43 1620.07 1876.69C1619.23 1878.14 1615.99 1884.46 1619.14 1891.17C1622.58 1898.52 1634.32 1908.18 1670.68 1912.46C1713.19 1917.56 1787.22 1932.24 1805.51 1973.19C1813.97 1992.14 1809.59 2014.12 1792.48 2038.53C1782.43 2052.07 1759.72 2056.44 1733.43 2061.5C1696.92 2068.53 1655.53 2076.5 1641.72 2110.48C1632.06 2134.26 1613.22 2152.34 1587.24 2162.77C1555.43 2175.56 1514.96 2175.6 1486.54 2162.88C1467.63 2154.41 1451.15 2154.28 1443.53 2162.51C1436.01 2170.65 1437.76 2186.43 1448.33 2205.81C1449.31 2207.6 1449.1 2209.81 1447.8 2211.39C1446.83 2212.57 1445.4 2213.22 1443.93 2213.22ZM1768.07 1772.35C1742.81 1772.35 1715.08 1773.29 1686.11 1776.8C1583.89 1789.16 1434.19 1890.16 1405.89 1951.93C1400.48 1963.77 1400.01 1973.16 1404.5 1979.85C1411.35 1990.04 1419.51 1999.76 1427.4 2009.15C1446.26 2031.59 1464.07 2052.78 1460.66 2076.68C1458.24 2093.69 1445.09 2109.95 1420.48 2126.38C1400.83 2139.5 1391.71 2152.02 1393.36 2163.58C1395.63 2179.38 1417.96 2192.25 1434.03 2199.14C1424.03 2174.63 1430.72 2161.6 1436.17 2155.71C1446.96 2144.03 1467.32 2143.29 1490.64 2153.73C1516.32 2165.22 1554.51 2165.12 1583.5 2153.47C1599.82 2146.92 1621.55 2133.49 1632.43 2106.7C1648.29 2067.68 1694.45 2058.8 1731.54 2051.65C1754.76 2047.18 1776.7 2042.96 1784.35 2032.66C1799.21 2011.45 1803.28 1992.78 1796.36 1977.28C1784.47 1950.67 1738.23 1930.67 1669.5 1922.42C1636.5 1918.53 1616.47 1909.39 1609.98 1895.26C1604.16 1882.59 1611.62 1871.26 1611.94 1870.78C1612.11 1870.54 1612.29 1870.31 1612.49 1870.1C1665.02 1815.63 1826.23 1780.84 1915.15 1804.82C2000.58 1827.86 2062.3 1830.76 2085.75 1770.02C2100.7 1731.29 2128.91 1729.72 2171.62 1727.35C2204.28 1725.54 2249 1723.06 2305.88 1702.27C2384 1673.71 2381.63 1639.77 2379.73 1612.5C2378.59 1596.21 2377.41 1579.37 2397.33 1571.47C2481 1542.87 2576.08 1450.76 2572.76 1414.45C2572.34 1409.9 2570.25 1403.62 2556.89 1401.64C2506.51 1394.18 2438.25 1408.25 2435.08 1417.3C2435.08 1417.3 2435.08 1417.3 2435.08 1417.3C2435.27 1417.3 2438.39 1422.76 2470.07 1428.17C2491.65 1431.86 2501.66 1437.44 2502.52 1446.27C2504.47 1466.13 2452.09 1487.1 2359.35 1522.46C2327.65 1534.55 2294.87 1547.05 2267.75 1558.92C2223.01 1578.5 2161.07 1589.55 2106.42 1599.29C2044.67 1610.31 1986.34 1620.71 1976.97 1639.62C1975.1 1643.39 1975.4 1647.42 1977.91 1652.31C1984.64 1665.43 1986.52 1675.91 1983.62 1684.33C1979.66 1695.84 1968.18 1701.16 1956.02 1706.8C1940.98 1713.77 1925.42 1720.99 1922.13 1740.56C1916.23 1775.69 1872.89 1774.58 1812.88 1773.08C1799.14 1772.73 1784.1 1772.35 1768.07 1772.35V1772.35Z" class="color7c7c7c svgShape"></path><path fill="#f2f2f2" d="M1454.58 2448.67C1558.9 2448.67 1643.46 2430.62 1643.46 2408.35C1643.46 2386.08 1558.9 2368.03 1454.58 2368.03C1350.27 2368.03 1265.7 2386.08 1265.7 2408.35C1265.7 2430.62 1350.27 2448.67 1454.58 2448.67Z" class="colorf2f2f2 svgShape"></path><path fill="#474747" d="M1454.58 2453.68C1358.23 2453.68 1260.69 2438.11 1260.69 2408.35C1260.69 2378.59 1358.23 2363.02 1454.58 2363.02C1550.94 2363.02 1648.48 2378.59 1648.48 2408.35C1648.48 2438.11 1550.94 2453.68 1454.58 2453.68ZM1454.58 2373.05C1340.66 2373.05 1270.72 2393.61 1270.72 2408.35C1270.72 2423.09 1340.66 2443.65 1454.58 2443.65C1568.5 2443.65 1638.45 2423.09 1638.45 2408.35C1638.45 2393.61 1568.5 2373.05 1454.58 2373.05Z" class="color474747 svgShape"></path><path fill="#f2f2f2" d="M1549.73 2249.64C1549.73 2249.64 1539.99 2383.54 1529.83 2409.95C1529.83 2409.95 1473.61 2431.4 1382.27 2411.32C1379.13 2403.1 1372.71 2380 1370.03 2368.04C1368.36 2360.35 1366.76 2352.19 1365.29 2343.9C1362.35 2327.59 1359.87 2310.74 1358 2296.1C1356.93 2288.48 1356.13 2281.46 1355.33 2275.45C1353.86 2262.21 1352.99 2253.66 1352.99 2253.66C1352.99 2253.66 1445.07 2230.23 1549.73 2249.64Z" class="colorf2f2f2 svgShape"></path><path fill="#474747" d="M1458.52 2424.98C1436.87 2424.98 1410.89 2422.75 1381.19 2416.22C1379.54 2415.86 1378.19 2414.69 1377.58 2413.11C1374.35 2404.65 1367.83 2381.16 1365.14 2369.13C1363.45 2361.35 1361.84 2353.17 1360.35 2344.78C1357 2326.23 1354.52 2308.42 1353.02 2296.74C1352.37 2292.12 1351.82 2287.66 1351.3 2283.51L1350.35 2276.11C1348.87 2262.74 1348 2254.16 1348 2254.16C1347.75 2251.69 1349.34 2249.41 1351.75 2248.8C1352.69 2248.56 1446.12 2225.34 1550.64 2244.72C1553.15 2245.18 1554.91 2247.46 1554.73 2250.01C1554.33 2255.51 1544.82 2384.96 1534.51 2411.75C1534 2413.08 1532.95 2414.13 1531.62 2414.63C1530.03 2415.24 1503.75 2424.98 1458.52 2424.98H1458.52ZM1386.04 2407.01C1463.4 2423.43 1515.02 2409.44 1525.9 2405.98C1534.39 2379.27 1542.64 2276.59 1544.39 2253.78C1456.32 2238.43 1377.23 2253.45 1358.43 2257.55C1358.83 2261.33 1359.47 2267.35 1360.31 2274.9L1361.25 2282.27C1361.76 2286.36 1362.32 2290.78 1362.97 2295.41C1364.45 2307.03 1366.91 2324.66 1370.22 2343.01C1371.69 2351.29 1373.27 2359.34 1374.93 2366.97C1377.31 2377.61 1382.75 2397.41 1386.04 2407.01Z" class="color474747 svgShape"></path><path fill="#f2f2f2" d="M1370.03 2368.03C1352.65 2361.82 1319.36 2345.24 1317.42 2309.21C1315.55 2273.64 1341.15 2273.11 1355.33 2275.45C1356.13 2281.46 1356.93 2288.48 1358 2296.1C1321.23 2311.01 1346.5 2332.34 1365.29 2343.9C1366.76 2352.19 1368.36 2360.35 1370.03 2368.03Z" class="colorf2f2f2 svgShape"></path><path fill="#474747" d="M1370.03 2373.05C1369.46 2373.05 1368.89 2372.96 1368.34 2372.76 1352.24 2367 1314.56 2349.29 1312.42 2309.48 1311.65 2294.98 1315.11 2284.19 1322.7 2277.4 1332.38 2268.73 1346.23 2268.86 1356.14 2270.5 1358.32 2270.86 1360.01 2272.6 1360.3 2274.79L1361.25 2282.27C1361.76 2286.37 1362.31 2290.77 1362.96 2295.41 1363.28 2297.68 1362.01 2299.89 1359.88 2300.75 1353.02 2303.53 1344.73 2308.1 1344.23 2314.03 1343.68 2320.69 1352.31 2330.02 1367.91 2339.63 1369.13 2340.38 1369.97 2341.62 1370.22 2343.02 1371.69 2351.29 1373.27 2359.35 1374.93 2366.97 1375.32 2368.75 1374.71 2370.6 1373.34 2371.8 1372.41 2372.62 1371.23 2373.05 1370.03 2373.05L1370.03 2373.05zM1345.96 2279.65C1340.04 2279.65 1333.85 2280.88 1329.39 2284.87 1324.17 2289.53 1321.83 2297.63 1322.43 2308.94 1323.92 2336.71 1345.83 2352.04 1363.21 2359.88 1362.36 2355.66 1361.53 2351.35 1360.74 2346.97 1342.26 2335.22 1333.35 2323.86 1334.24 2313.2 1334.91 2305.16 1341.06 2298.39 1352.52 2293.02 1352.07 2289.71 1351.68 2286.53 1351.3 2283.51L1350.84 2279.91C1349.26 2279.75 1347.63 2279.65 1345.96 2279.65L1345.96 2279.65zM1448.74 2401.15C1410.94 2401.15 1379.27 2395.34 1377.16 2394.95 1374.44 2394.43 1372.65 2391.82 1373.16 2389.09 1373.67 2386.37 1376.28 2384.57 1379.01 2385.09 1379.81 2385.24 1460.51 2400.01 1516.95 2382.38 1519.59 2381.54 1522.4 2383.03 1523.23 2385.67 1524.05 2388.31 1522.58 2391.12 1519.94 2391.95 1497.53 2398.95 1471.98 2401.15 1448.74 2401.15zM1451.71 2271.47C1410.14 2271.47 1372.22 2268.05 1369.57 2267.81 1366.82 2267.56 1364.79 2265.11 1365.04 2262.36 1365.29 2259.6 1367.68 2257.54 1370.49 2257.82 1371.57 2257.92 1479.46 2267.63 1530.87 2254.52 1533.57 2253.83 1536.28 2255.46 1536.97 2258.14 1537.65 2260.82 1536.04 2263.56 1533.35 2264.24 1511.53 2269.8 1480.73 2271.47 1451.71 2271.47z" class="color474747 svgShape"></path><path fill="#474747" d="M1440.09 2423.17C1411.47 2423.17 1382.02 2422.15 1356.14 2419.24C1342.07 2417.66 1332.6 2415.14 1332.16 2408C1331.97 2404.9 1331.47 2396.68 1373.11 2386.75C1375.8 2386.11 1378.51 2387.76 1379.15 2390.46C1379.79 2393.15 1378.13 2395.86 1375.44 2396.5C1362.59 2399.57 1349.83 2403.95 1344.38 2406.98C1346.63 2407.66 1350.54 2408.52 1357.27 2409.28C1442.95 2418.9 1568.74 2407.57 1570 2407.46C1572.69 2407.21 1575.19 2409.24 1575.45 2411.99C1575.7 2414.75 1573.67 2417.19 1570.91 2417.45C1570.02 2417.53 1507.35 2423.17 1440.09 2423.17L1440.09 2423.17Z" class="color474747 svgShape"></path><path fill="#f2f2f2" d="M2123.39 1949.79L2062.11 2270.45L1671.2 2346.37C1671.2 2346.37 1649.75 2355.79 1657.93 2372.51L2030.28 2480.36L2543.83 2316.63L2637.41 1840.5C2637.41 1840.5 2634.33 1831.32 2613.64 1831.85L2123.39 1949.79Z" class="colorf2f2f2 svgShape"></path><path fill="#474747" d="M2030.28 2485.37C2029.81 2485.37 2029.34 2485.31 2028.88 2485.17L1656.54 2377.32C1655.18 2376.93 1654.05 2375.98 1653.43 2374.71C1650.71 2369.16 1650.32 2363.65 1652.26 2358.34C1656.2 2347.59 1668.65 2342.01 1669.18 2341.78C1669.52 2341.63 1669.87 2341.52 1670.24 2341.45L2057.83 2266.18L2118.47 1948.85C2118.83 1946.91 2120.3 1945.38 2122.21 1944.92L2612.46 1826.98C2612.81 1826.89 2613.15 1826.84 2613.51 1826.84C2637.26 1826.25 2641.72 1837.61 2642.16 1838.91C2642.44 1839.73 2642.49 1840.61 2642.33 1841.47L2548.75 2317.6C2548.4 2319.4 2547.1 2320.85 2545.35 2321.41L2031.8 2485.14C2031.3 2485.3 2030.79 2485.37 2030.28 2485.37ZM1661.64 2368.36L2030.21 2475.12L2539.49 2312.75L2632.12 1841.44C2630.73 1839.98 2626.31 1836.67 2614.29 1836.85L2127.71 1953.91L2067.04 2271.4C2066.65 2273.41 2065.09 2274.99 2063.07 2275.38L1672.76 2351.17C1669.94 2352.55 1663.58 2356.55 1661.66 2361.82C1660.91 2363.91 1660.9 2366.07 1661.64 2368.36Z" class="color474747 svgShape"></path><path fill="#474747" d="M2027.99 2446.75L2062.11 2270.45L1671.2 2346.37L2027.99 2446.75Z" class="color474747 svgShape"></path><path fill="#474747" d="M2027.99 2451.76C2027.54 2451.76 2027.08 2451.7 2026.63 2451.58L1669.84 2351.2C1667.6 2350.57 1666.09 2348.48 1666.19 2346.16C1666.29 2343.84 1667.96 2341.89 1670.24 2341.45L2061.16 2265.53C2062.76 2265.21 2064.47 2265.73 2065.66 2266.91C2066.84 2268.08 2067.35 2269.77 2067.04 2271.41L2032.91 2447.7C2032.65 2449.08 2031.82 2450.28 2030.62 2451.01C2029.83 2451.51 2028.91 2451.76 2027.99 2451.76ZM1692.89 2347.26L2024.11 2440.45L2055.78 2276.79L1692.89 2347.26Z" class="color474747 svgShape"></path><path fill="#f2f2f2" d="M2044.08 2448.67L2146.74 1964.2L2637.41 1840.5" class="colorf2f2f2 svgShape"></path><path fill="#474747" d="M2044.09 2453.68C2043.74 2453.68 2043.39 2453.64 2043.04 2453.57C2040.33 2453 2038.6 2450.33 2039.18 2447.63L2141.84 1963.16C2142.23 1961.29 2143.66 1959.81 2145.51 1959.34L2636.18 1835.64C2638.83 1834.96 2641.59 1836.58 2642.27 1839.27C2642.94 1841.96 2641.32 1844.68 2638.64 1845.36L2151 1968.3L2048.98 2449.7C2048.48 2452.06 2046.4 2453.68 2044.08 2453.68L2044.09 2453.68Z" class="color474747 svgShape"></path></svg>